<?xml version="1.0" encoding="UTF-8" standalone="no"?>
<!DOCTYPE svg  PUBLIC '-//W3C//DTD SVG 1.1//EN'  'http://www.w3.org/Graphics/SVG/1.1/DTD/svg11.dtd'>
<svg version="1.1" xmlns="http://www.w3.org/2000/svg">
<defs>
<font id="Karbon-Light" horiz-adv-x="520">
<font-face descent="-200" unicode-range="U+0020-FB04" underline-position="-150" ascent="800" bbox="-90 -188 994 848" panose-1="0 0 4 0 0 0 0 0 0 0" units-per-em="1000" font-family="Karbon Light" cap-height="594" font-weight="500" underline-thickness="50" x-height="436"/>
<missing-glyph horiz-adv-x="190"/>
<glyph d="M123 408v-408h-33v408h-66v28h66v114q0 61 31 95t87 34q46 0 74 -21v-36q-33 27 -74 27q-85 0 -85 -105v-108h233v123q0 61 31 95t87 34q46 0 74 -21v-36q-33 27 -74 27q-85 0 -85 -105v-117h125v-28h-125v-408h-33v408h-233z" glyph-name="ff" unicode="ff" horiz-adv-x="514"/>
<glyph d="M123 408v-408h-33v408h-66v28h66v105q0 67 35 107t101 40q61 0 103 -33v-37q-49 40 -103 40q-103 0 -103 -123v-99h266v-436h-33v408h-233z" glyph-name="fi" unicode="fi" horiz-adv-x="469"/>
<glyph d="M389 680v-680h-33v680h33zM90 436v123q0 61 31 95t87 34q46 0 74 -21v-36q-33 27 -74 27q-85 0 -85 -105v-117h133v-28h-133v-408h-33v408h-66v28h66z" glyph-name="fl" unicode="fl" horiz-adv-x="469"/>
<glyph d="M389 408v-408h-33v408h-233v-408h-33v408h-66v28h66v114q0 61 31 95t87 34q46 0 74 -21v-36q-33 27 -74 27q-85 0 -85 -105v-108h233v105q0 67 35 107t101 40q61 0 103 -33v-37q-49 40 -103 40q-103 0 -103 -123v-99h267v-436h-33v408h-234z" glyph-name="ffi" unicode="ffi" horiz-adv-x="736"/>
<glyph d="M656 680v-680h-33v680h33zM389 408v-408h-33v408h-233v-408h-33v408h-66v28h66v114q0 61 31 95t87 34q46 0 74 -21v-36q-33 27 -74 27q-85 0 -85 -105v-108h233v123q0 62 30.5 95.5t87.5 33.5q46 0 74 -21v-34q-33 27 -74 27q-85 0 -85 -105v-119h133v-28h-133z" glyph-name="ffl" unicode="ffl" horiz-adv-x="736"/>
<glyph d="M623 408h-234v-408h-33v408h-233v-408h-33v408h-66v28h66v114q0 61 31 95t87 34q46 0 74 -21v-36q-33 27 -74 27q-85 0 -85 -105v-108h233v105q0 67 35 107t101 40q61 0 103 -33v-37q-49 40 -103 40q-103 0 -103 -123v-99h267v-502q0 -122 -106 -122q-32 0 -58 12v31 q32 -14 58 -14q36 0 54.5 20t18.5 71v476z" glyph-name="f_f_j" unicode="ffj" horiz-adv-x="736"/>
<glyph d="M356 -68v476h-233v-408h-33v408h-66v28h66v105q0 67 35 107t101 40q61 0 103 -33v-37q-49 40 -103 40q-103 0 -103 -123v-99h266v-502q0 -122 -106 -122q-32 0 -58 12v31q32 -14 58 -14q36 0 54.5 20t18.5 71z" glyph-name="f_j" unicode="fj" horiz-adv-x="469"/>
<glyph d="M389 393v-358q38 -14 96 -14q97 0 152.5 53.5t55.5 145.5q0 93 -54.5 144t-138.5 51q-60 0 -111 -22zM356 12v668h33v-259q44 23 111 23q100 0 163.5 -58t63.5 -166q0 -105 -67 -166.5t-175 -61.5q-74 0 -129 20zM90 436v123q0 61 31 95t87 34q46 0 74 -21v-36 q-33 27 -74 27q-85 0 -85 -105v-117h133v-28h-133v-408h-33v408h-66v28h66z" glyph-name="f_b" unicode="fb" horiz-adv-x="773"/>
<glyph d="M389 680v-680h-33v680h33zM652 0l-258 236l247 200h48l-249 -200l257 -236h-45zM90 436v123q0 61 31 95t87 34q46 0 74 -21v-36q-33 27 -74 27q-85 0 -85 -105v-117h133v-28h-133v-408h-33v408h-66v28h66z" glyph-name="f_k" unicode="fk" horiz-adv-x="710"/>
<glyph d="M356 0v680h33v-261q73 25 133 25q174 0 174 -144v-300h-33v292q0 68 -38 94.5t-103 26.5q-59 0 -133 -23v-390h-33zM90 436v123q0 61 31 95t87 34q46 0 74 -21v-36q-33 27 -74 27q-85 0 -85 -105v-117h133v-28h-133v-408h-33v408h-66v28h66z" glyph-name="f_h" unicode="fh" horiz-adv-x="771"/>
<glyph d="M656 393v-358q38 -14 96 -14q97 0 152.5 53.5t55.5 145.5q0 93 -54.5 144t-138.5 51q-60 0 -111 -22zM623 12v668h33v-259q44 23 111 23q100 0 163.5 -58t63.5 -166q0 -105 -67 -166.5t-175 -61.5q-74 0 -129 20zM389 408v-408h-33v408h-233v-408h-33v408h-66v28h66v114 q0 61 31 95t87 34q46 0 74 -21v-36q-33 27 -74 27q-85 0 -85 -105v-108h233v123q0 62 30.5 95.5t87.5 33.5q46 0 74 -21v-34q-33 27 -74 27q-85 0 -85 -105v-119h133v-28h-133z" glyph-name="f_f_b" unicode="ffb" horiz-adv-x="1040"/>
<glyph d="M623 0v680h33v-261q73 25 133 25q174 0 174 -144v-300h-33v292q0 68 -38 94.5t-103 26.5q-59 0 -133 -23v-390h-33zM389 408v-408h-33v408h-233v-408h-33v408h-66v28h66v114q0 61 31 95t87 34q46 0 74 -21v-36q-33 27 -74 27q-85 0 -85 -105v-108h233v123q0 62 30.5 95.5 t87.5 33.5q46 0 74 -21v-34q-33 27 -74 27q-85 0 -85 -105v-119h133v-28h-133z" glyph-name="f_f_h" unicode="ffh" horiz-adv-x="1038"/>
<glyph d="M656 680v-680h-33v680h33zM919 0l-258 236l247 200h48l-249 -200l257 -236h-45zM389 408v-408h-33v408h-233v-408h-33v408h-66v28h66v114q0 61 31 95t87 34q46 0 74 -21v-36q-33 27 -74 27q-85 0 -85 -105v-108h233v123q0 62 30.5 95.5t87.5 33.5q46 0 74 -21v-34 q-33 27 -74 27q-85 0 -85 -105v-119h133v-28h-133z" glyph-name="f_f_k" unicode="ffk" horiz-adv-x="977"/>
<glyph glyph-name=".notdef" horiz-adv-x="190"/>
<glyph glyph-name=".null" horiz-adv-x="0"/>
<glyph glyph-name="nonmarkingreturn" horiz-adv-x="333"/>
<glyph glyph-name="space" unicode=" " horiz-adv-x="190"/>
<glyph d="M90 26q0 12 8 20t20 8t20 -8t8 -20t-8 -20t-20 -8t-20 8t-8 20zM135 594v-437h-34v437h34z" glyph-name="exclam" unicode="!" horiz-adv-x="236"/>
<glyph d="M144 457l16 187h31l-20 -187h-27zM59 457l16 187h31l-20 -187h-27z" glyph-name="quotedbl" unicode='&quot;' horiz-adv-x="246"/>
<glyph d="M157 223h134l32 157h-134zM152 196l-40 -196h-31l40 196h-96v27h101l32 157h-101v27h106l38 187h31l-38 -187h134l38 187h31l-38 -187h95v-27h-100l-32 -157h100v-27h-105l-40 -196h-31l40 196h-134z" glyph-name="numbersign" unicode="#" horiz-adv-x="479"/>
<glyph d="M218 287v-264q55 6 89.5 37.5t34.5 87.5q0 53 -30 83t-94 56zM190 330v241q-50 -4 -83 -33.5t-33 -78.5q0 -46 26 -74.5t90 -54.5zM190 -95v87q-90 1 -148 49v40q66 -57 148 -59v276q-37 14 -61 26.5t-46 31.5t-32 44t-10 59q0 63 43 100.5t106 41.5v79h28v-78 q79 -5 125 -45v-38q-57 49 -125 53v-252q82 -31 119.5 -66.5t37.5 -105.5q0 -68 -44.5 -108.5t-112.5 -46.5v-88h-28z" glyph-name="dollar" unicode="$" horiz-adv-x="422"/>
<glyph d="M507 595l-362 -595h-33l362 595h33zM548 120q0 45 -28 72.5t-70 27.5q-41 0 -69 -27.5t-28 -72.5q0 -44 28 -71.5t69 -27.5q42 0 70 27.5t28 71.5zM579 120q0 -55 -37.5 -91t-91.5 -36q-53 0 -90.5 36t-37.5 91q0 56 37.5 92.5t90.5 36.5q54 0 91.5 -36.5t37.5 -92.5z M71 474q0 -45 28 -72.5t69 -27.5q42 0 70 27.5t28 72.5t-28 72t-70 27t-69.5 -27t-27.5 -72zM40 474q0 55 37.5 91.5t90.5 36.5t90.5 -36.5t37.5 -91.5t-37.5 -91.5t-90.5 -36.5t-90.5 36.5t-37.5 91.5z" glyph-name="percent" unicode="%" horiz-adv-x="619"/>
<glyph d="M396 108l-189 196q-69 -36 -101 -72t-32 -88q0 -57 42 -90.5t103 -33.5q111 0 177 88zM181 376l34 -36q33 17 54 31.5t40 42.5t19 61q-1 44 -28.5 70.5t-72.5 27.5q-45 0 -71 -28t-26 -66q0 -30 12 -52t39 -51zM187 325l-29 30q-60 60 -60 124q0 51 34.5 87t94.5 36 q62 0 97.5 -36t35.5 -91q0 -51 -32.5 -87t-92.5 -69l177 -185q39 68 39 154h29q0 -98 -47 -175l108 -113h-41l-85 88q-73 -96 -196 -96q-78 0 -128 41t-50 111q0 58 32.5 97.5t113.5 83.5z" glyph-name="ampersand" unicode="&amp;" horiz-adv-x="541"/>
<glyph d="M59 457l16 187h31l-20 -187h-27z" glyph-name="quotesingle" unicode="&apos;" horiz-adv-x="161"/>
<glyph d="M270 -141h-38q-180 167 -180 411q0 243 180 410h38q-42 -41 -71.5 -77.5t-58 -86.5t-43.5 -112t-15 -134t15 -134t43.5 -112.5t58 -87t71.5 -77.5z" glyph-name="parenleft" unicode="(" horiz-adv-x="280"/>
<glyph d="M10 680h38q180 -167 180 -410q0 -244 -180 -411h-38q42 41 71.5 77.5t58 87t43.5 112.5t15 134t-15 134t-43.5 112t-58 86.5t-71.5 77.5z" glyph-name="parenright" unicode=")" horiz-adv-x="280"/>
<glyph d="M151 530l-65 -90l-21 14l67 90l-107 35l7 24l107 -36l-1 113h26l-1 -113l107 36l8 -24l-108 -34l68 -90l-21 -15z" glyph-name="asterisk" unicode="*" horiz-adv-x="303"/>
<glyph d="M203 278h-163v29h163v163h29v-163h163v-29h-163v-163h-29v163z" glyph-name="plus" unicode="+" horiz-adv-x="435"/>
<glyph d="M85 65h36q0 -56 -28.5 -112t-65.5 -81h-28q38 33 62 85t24 108z" glyph-name="comma" unicode="," horiz-adv-x="196"/>
<glyph d="M64 247v29h227v-29h-227z" glyph-name="hyphen" unicode="-" horiz-adv-x="355"/>
<glyph d="M70 26q0 12 8 20t20 8t20 -8t8 -20t-8 -20t-20 -8t-20 8t-8 20z" glyph-name="period" unicode="." horiz-adv-x="196"/>
<glyph d="M18 -138l310 818h32l-310 -818h-32z" glyph-name="slash" unicode="/" horiz-adv-x="383"/>
<glyph d="M78 297q0 -126 51 -201t133 -75t133 75t51 201t-51 201t-133 75t-133 -75t-51 -201zM45 297q0 137 59.5 221t157.5 84t157.5 -84t59.5 -221t-59.5 -221t-157.5 -84t-157.5 84t-59.5 221z" glyph-name="zero" unicode="0" horiz-adv-x="524"/>
<glyph d="M15 544v28l163 30v-602h-33v565z" glyph-name="one" unicode="1" horiz-adv-x="273"/>
<glyph d="M53 29h317v-29h-365v24q71 60 119 104.5t98.5 100.5t75.5 108.5t25 100.5q0 65 -34 99.5t-94 34.5q-94 0 -164 -90v39q27 35 70 58t94 23q73 0 117 -41.5t44 -122.5q0 -167 -303 -409z" glyph-name="two" unicode="2" horiz-adv-x="409"/>
<glyph d="M27 489v37q24 33 64.5 54.5t90.5 21.5q69 0 110 -39t41 -100q0 -59 -41.5 -101t-106.5 -58q67 -7 115 -47.5t48 -104.5q0 -73 -49.5 -116.5t-132.5 -43.5q-42 0 -83 15.5t-63 37.5v35q67 -59 146 -59q69 0 108.5 35.5t39.5 95.5q0 113 -179 138v22q84 22 124 57.5 t40 93.5q0 49 -33 79.5t-84 30.5q-90 0 -155 -84z" glyph-name="three" unicode="3" horiz-adv-x="387"/>
<glyph d="M321 562l-271 -359h271v359zM353 594v-391h103v-27h-103v-176h-32v176h-311v23l301 395h42z" glyph-name="four" unicode="4" horiz-adv-x="476"/>
<glyph d="M113 564l-14 -199q113 -13 182 -61.5t69 -138.5q0 -76 -50 -124.5t-141 -48.5q-85 0 -137 46v35q63 -52 137 -52q73 0 115 39t42 105q0 81 -64.5 120.5t-184.5 53.5l18 255h250v-30h-222z" glyph-name="five" unicode="5" horiz-adv-x="394"/>
<glyph d="M72 181q0 -72 45.5 -116t114.5 -44t114.5 44t45.5 116q0 71 -45.5 114.5t-114.5 43.5q-68 0 -114 -43.5t-46 -114.5zM251 594h37l-154 -232l-42 -65q24 31 61.5 51t78.5 20q84 0 138.5 -50.5t54.5 -136.5q0 -78 -51.5 -133.5t-141.5 -55.5q-88 0 -140 55.5t-52 133.5 q0 91 62 185z" glyph-name="six" unicode="6" horiz-adv-x="460"/>
<glyph d="M326 564h-316v30h351v-28l-269 -566h-35z" glyph-name="seven" unicode="7" horiz-adv-x="381"/>
<glyph d="M242 20q68 0 113 36.5t45 103.5q0 68 -45.5 104t-112.5 36t-112.5 -36t-45.5 -104q0 -67 45 -103.5t113 -36.5zM242 328q53 0 89.5 33t36.5 89q0 57 -36.5 90.5t-89.5 33.5t-89.5 -33.5t-36.5 -90.5q0 -56 36.5 -89t89.5 -33zM242 -8q-84 0 -138 44.5t-54 123.5 q0 62 39 104t95 52q-43 13 -72 46.5t-29 87.5q0 69 45.5 110.5t113.5 41.5t113.5 -41.5t45.5 -110.5q0 -54 -29 -87.5t-72 -46.5q56 -10 95 -52t39 -104q0 -79 -54 -123.5t-138 -44.5z" glyph-name="eight" unicode="8" horiz-adv-x="484"/>
<glyph d="M388 413q0 72 -45.5 116t-114.5 44t-114.5 -44t-45.5 -116q0 -71 45.5 -114.5t114.5 -43.5q68 0 114 43.5t46 114.5zM209 0h-37l154 232l42 65q-24 -31 -61.5 -51t-78.5 -20q-84 0 -138.5 50.5t-54.5 136.5q0 78 51.5 133.5t141.5 55.5q88 0 140 -55.5t52 -133.5 q0 -91 -62 -185z" glyph-name="nine" unicode="9" horiz-adv-x="460"/>
<glyph d="M70 386q0 12 8 20t20 8t20 -8t8 -20t-8 -20t-20 -8t-20 8t-8 20zM70 26q0 12 8 20t20 8t20 -8t8 -20t-8 -20t-20 -8t-20 8t-8 20z" glyph-name="colon" unicode=":" horiz-adv-x="196"/>
<glyph d="M73 386q0 12 8 20t20 8t20 -8t8 -20t-8 -20t-20 -8t-20 8t-8 20zM85 65h36q0 -56 -28.5 -112t-65.5 -81h-28q38 33 62 85t24 108z" glyph-name="semicolon" unicode=";" horiz-adv-x="196"/>
<glyph d="M25 289v4l259 159v-35l-208 -126l208 -126v-35z" glyph-name="less" unicode="&lt;" horiz-adv-x="319"/>
<glyph d="M42 339v29h356v-29h-356zM42 219v29h356v-29h-356z" glyph-name="equal" unicode="=" horiz-adv-x="440"/>
<glyph d="M294 293v-4l-259 -159v35l208 126l-208 126v35z" glyph-name="greater" unicode="&gt;" horiz-adv-x="319"/>
<glyph d="M135 26q0 12 8 20t20 8t20 -8t8 -20t-8 -20t-20 -8t-20 8t-8 20zM28 494v39q22 30 63.5 49.5t88.5 19.5q80 0 124 -45.5t44 -115.5q0 -35 -11.5 -65t-27.5 -49.5t-41 -36.5t-45 -26.5t-45 -18.5v-88h-34v106q84 30 127 69.5t43 109.5q0 56 -34.5 92.5t-99.5 36.5 q-89 0 -152 -77z" glyph-name="question" unicode="?" horiz-adv-x="379"/>
<glyph d="M507 54v308q-36 14 -86 14q-77 0 -123.5 -42t-46.5 -124q0 -75 48 -120t128 -45q42 0 80 9zM539 382v-321q151 55 151 221q0 120 -77.5 192t-204.5 72q-152 0 -241 -94.5t-89 -233.5q0 -70 22 -127t57.5 -94.5t82.5 -63t95.5 -36.5t97.5 -11q109 0 206 38v-31 q-86 -37 -206 -37q-69 0 -134.5 20t-124 61t-94 113.5t-35.5 167.5q0 155 100 256t263 101q143 0 228.5 -81t85.5 -212q0 -124 -81.5 -195t-212.5 -71q-93 0 -151.5 52.5t-58.5 141.5q0 90 55 143t148 53q63 0 118 -24z" glyph-name="at" unicode="@" horiz-adv-x="768"/>
<glyph d="M405 210l-139 353l-136 -353h275zM417 180h-299l-69 -180h-35l233 594h41l235 -594h-35z" glyph-name="A" unicode="A" horiz-adv-x="537"/>
<glyph d="M127 569v-253h64q83 0 130 34.5t47 99.5q0 122 -173 122q-31 0 -68 -3zM127 286v-257q34 -6 72 -6q99 0 145 33.5t46 101.5q0 63 -51.5 95.5t-146.5 32.5h-65zM93 3v592q63 7 102 7q208 0 208 -152q0 -61 -38.5 -100t-101.5 -47q72 -4 117 -42.5t45 -102.5 q0 -79 -56.5 -122.5t-169.5 -43.5q-53 0 -106 11z" glyph-name="B" unicode="B" horiz-adv-x="469"/>
<glyph d="M512 557v-40q-63 54 -164 54q-112 0 -188 -75t-76 -199t78.5 -199t195.5 -75q102 0 164 47v-36q-56 -42 -164 -42q-135 0 -221.5 84.5t-86.5 220.5q0 134 84.5 219.5t213.5 85.5q97 0 164 -45z" glyph-name="C" unicode="C" horiz-adv-x="567"/>
<glyph d="M127 568v-540q43 -5 81 -5q154 0 237.5 72.5t83.5 212.5q0 125 -84.5 194t-251.5 69q-29 0 -66 -3zM93 1v594q53 6 100 6q189 0 279.5 -79t90.5 -214q0 -143 -88.5 -229t-266.5 -86q-51 0 -115 8z" glyph-name="D" unicode="D" horiz-adv-x="613"/>
<glyph d="M127 30h289v-30h-323v594h320v-30h-286v-244h269v-30h-269v-260z" glyph-name="E" unicode="E" horiz-adv-x="468"/>
<glyph d="M127 0h-34v594h292v-30h-258v-251h239v-30h-239v-283z" glyph-name="F" unicode="F" horiz-adv-x="422"/>
<glyph d="M512 557v-40q-63 54 -164 54q-112 0 -188 -76.5t-76 -200.5q0 -123 79 -197t195 -74q80 0 143 28v196h33v-215q-77 -40 -176 -40q-134 0 -221 84.5t-87 217.5q0 134 85 221t213 87q97 0 164 -45z" glyph-name="G" unicode="G" horiz-adv-x="597"/>
<glyph d="M534 320v274h34v-594h-34v290h-407v-290h-34v594h34v-274h407z" glyph-name="H" unicode="H" horiz-adv-x="661"/>
<glyph d="M127 594v-594h-34v594h34z" glyph-name="I" unicode="I" horiz-adv-x="220"/>
<glyph d="M13 42v41q57 -60 123 -60q51 0 74 27t23 87v457h34v-462q0 -140 -131 -140q-77 0 -123 50z" glyph-name="J" unicode="J" horiz-adv-x="343"/>
<glyph d="M131 291l296 303h45l-295 -300l316 -294h-49zM93 0v594h34v-594h-34z" glyph-name="K" unicode="K" horiz-adv-x="498"/>
<glyph d="M93 0v594h34v-564h265v-30h-299z" glyph-name="L" unicode="L" horiz-adv-x="412"/>
<glyph d="M400 0h-37l-189 558l-102 -558h-34l109 594h48l187 -550l185 550h49l109 -594h-35l-102 562z" glyph-name="M" unicode="M" horiz-adv-x="763"/>
<glyph d="M127 594l394 -545v545h33v-594h-34l-394 545v-545h-33v594h34z" glyph-name="N" unicode="N" horiz-adv-x="647"/>
<glyph d="M614 297q0 124 -75.5 199t-189.5 75t-189.5 -75t-75.5 -199t75.5 -199t189.5 -75t189.5 75t75.5 199zM50 297q0 135 84.5 220t214.5 85t214.5 -85t84.5 -220t-84.5 -220t-214.5 -85t-214.5 85t-84.5 220z" glyph-name="O" unicode="O" horiz-adv-x="698"/>
<glyph d="M127 570v-304q24 -2 45 -2q198 0 198 160q0 67 -46.5 107.5t-149.5 40.5q-25 0 -47 -2zM127 236v-236h-34v595q35 7 81 7q113 0 172 -45.5t59 -132.5q0 -90 -60 -140t-173 -50q-23 0 -45 2z" glyph-name="P" unicode="P" horiz-adv-x="435"/>
<glyph d="M614 297q0 124 -75.5 199t-189.5 75t-189.5 -75t-75.5 -199t75.5 -199t189.5 -75t189.5 75t75.5 199zM352 -8h-3q-130 0 -214.5 85t-84.5 220t84.5 220t214.5 85t214.5 -85t84.5 -220q0 -124 -71.5 -206t-185.5 -96l130 -131h-44z" glyph-name="Q" unicode="Q" horiz-adv-x="698"/>
<glyph d="M127 569v-297h71q79 0 124.5 39.5t45.5 113.5q0 72 -49 110t-138 38q-26 0 -54 -4zM127 243v-243h-34v593q41 9 88 9q107 0 165 -45t58 -132q0 -72 -40 -117t-103 -58l217 -250h-44l-209 243h-98z" glyph-name="R" unicode="R" horiz-adv-x="488"/>
<glyph d="M42 41v40q67 -59 154 -59q63 0 103.5 32t40.5 94q0 57 -33 86.5t-107 58.5q-82 32 -119.5 65.5t-37.5 100.5t47.5 105t115.5 38q86 0 137 -45v-38q-62 53 -137 53q-56 0 -93 -30t-37 -83q0 -49 29.5 -78.5t103.5 -56.5q43 -16 69 -29t50 -33.5t34.5 -48t10.5 -65.5 q0 -74 -50.5 -115t-126.5 -41q-95 0 -154 49z" glyph-name="S" unicode="S" horiz-adv-x="422"/>
<glyph d="M252 564v-564h-34v564h-203v30h440v-30h-203z" glyph-name="T" unicode="T" horiz-adv-x="470"/>
<glyph d="M76 194v400h34v-404q0 -167 210 -167q79 0 145 15v556h34v-579q-90 -23 -179 -23q-244 0 -244 202z" glyph-name="U" unicode="U" horiz-adv-x="592"/>
<glyph d="M282 0h-37l-231 594h36l214 -556l214 556h35z" glyph-name="V" unicode="V" horiz-adv-x="527"/>
<glyph d="M355 594h41l151 -563l156 563h33l-166 -594h-45l-150 555l-150 -555h-45l-166 594h34l156 -563z" glyph-name="W" unicode="W" horiz-adv-x="750"/>
<glyph d="M472 594l-202 -287l217 -307h-39l-199 281l-196 -281h-39l216 308l-201 286h39l183 -260l182 260h39z" glyph-name="X" unicode="X" horiz-adv-x="501"/>
<glyph d="M249 277l197 317h37l-218 -350v-244h-34v244l-217 350h38z" glyph-name="Y" unicode="Y" horiz-adv-x="497"/>
<glyph d="M49 564v30h391v-26l-377 -538h383v-30h-423v27l376 537h-350z" glyph-name="Z" unicode="Z" horiz-adv-x="469"/>
<glyph d="M109 654v-766h114v-26h-144v818h144v-26h-114z" glyph-name="bracketleft" unicode="[" horiz-adv-x="273"/>
<glyph d="M55 680l310 -818h-32l-310 818h32z" glyph-name="backslash" unicode="\" horiz-adv-x="383"/>
<glyph d="M164 -112v766h-114v26h144v-818h-144v26h114z" glyph-name="bracketright" unicode="]" horiz-adv-x="273"/>
<glyph d="M202 595l143 -241h-36l-124 212l-124 -212h-36l142 241h35z" glyph-name="asciicircum" unicode="^" horiz-adv-x="370"/>
<glyph d="M50 -114v27h332v-27h-332z" glyph-name="underscore" unicode="_" horiz-adv-x="432"/>
<glyph d="M309 513h-33l-85 152h33z" glyph-name="grave" unicode="`" horiz-adv-x="500"/>
<glyph d="M310 28v192h-50q-185 0 -185 -100q0 -50 45.5 -75t118.5 -25q39 0 71 8zM310 249v65q0 48 -25.5 74t-73.5 26q-66 0 -124 -33v31q52 32 125 32q131 0 131 -126v-311q-52 -15 -104 -15q-93 0 -145 32.5t-52 95.5q0 129 217 129h51z" glyph-name="a" unicode="a" horiz-adv-x="415"/>
<glyph d="M113 393v-358q38 -14 96 -14q97 0 152.5 53.5t55.5 145.5q0 93 -54.5 144t-138.5 51q-60 0 -111 -22zM80 12v668h33v-259q44 23 111 23q100 0 163.5 -58t63.5 -166q0 -105 -67 -166.5t-175 -61.5q-74 0 -129 20z" glyph-name="b" unicode="b" horiz-adv-x="497"/>
<glyph d="M385 408v-36q-51 42 -123 42q-77 0 -129.5 -53t-52.5 -142t52.5 -143t132.5 -54q74 0 127 37v-32q-48 -35 -127 -35q-93 0 -156 62.5t-63 164.5q0 103 63 164t153 61q71 0 123 -36z" glyph-name="c" unicode="c" horiz-adv-x="437"/>
<glyph d="M386 28v364q-44 23 -108 23q-86 0 -142 -52.5t-56 -145.5q0 -92 58.5 -144t156.5 -52q52 0 91 7zM419 680v-675q-64 -13 -124 -13q-113 0 -181 59.5t-68 165.5q0 107 67.5 167t164.5 60q68 0 108 -22v258h33z" glyph-name="d" unicode="d" horiz-adv-x="495"/>
<glyph d="M81 254h308q0 74 -37.5 117.5t-102.5 43.5q-63 0 -110.5 -45.5t-57.5 -115.5zM422 227h-344v-7q0 -91 51 -144.5t131 -53.5q85 0 144 50v-35q-53 -45 -144 -45q-92 0 -153 61t-61 167q0 92 58.5 158t144.5 66q80 0 126.5 -51.5t46.5 -138.5v-27z" glyph-name="e" unicode="e" horiz-adv-x="466"/>
<glyph d="M123 408v-408h-33v408h-66v28h66v123q0 61 31 95t87 34q46 0 74 -21v-36q-33 27 -74 27q-85 0 -85 -105v-117h125v-28h-125z" glyph-name="f" unicode="f" horiz-adv-x="248"/>
<glyph d="M386 42v359q-44 14 -91 14q-101 0 -158 -53.5t-57 -141.5q0 -91 53 -144t150 -53q57 0 103 19zM386 -1v16q-34 -21 -103 -21q-107 0 -172 58t-65 168q0 104 68.5 164t180.5 60q72 0 124 -25v-425q0 -91 -54 -136.5t-135 -45.5q-83 0 -127 27v34q55 -31 127 -31 q69 0 112.5 37t43.5 120z" glyph-name="g" unicode="g" horiz-adv-x="495"/>
<glyph d="M80 0v680h33v-261q73 25 133 25q174 0 174 -144v-300h-33v292q0 68 -38 94.5t-103 26.5q-59 0 -133 -23v-390h-33z" glyph-name="h" unicode="h" horiz-adv-x="495"/>
<glyph d="M96 536q-11 0 -19 7.5t-8 19.5t8 19.5t19 7.5t19 -7.5t8 -19.5t-8 -19.5t-19 -7.5zM113 436v-436h-33v436h33z" glyph-name="i" unicode="i" horiz-adv-x="193"/>
<glyph d="M96 536q-11 0 -19 7.5t-8 19.5t8 19.5t19 7.5t19 -7.5t8 -19.5t-8 -19.5t-19 -7.5zM80 -68v504h33v-502q0 -122 -106 -122q-32 0 -58 12v31q32 -14 58 -14q36 0 54.5 20t18.5 71z" glyph-name="j" unicode="j" horiz-adv-x="193"/>
<glyph d="M113 680v-680h-33v680h33zM376 0l-258 236l247 200h48l-249 -200l257 -236h-45z" glyph-name="k" unicode="k" horiz-adv-x="434"/>
<glyph d="M113 680v-680h-33v680h33z" glyph-name="l" unicode="l" horiz-adv-x="193"/>
<glyph d="M644 0v297q0 117 -118 117q-69 0 -146 -33q17 -31 17 -79v-302h-33v297q0 117 -118 117q-77 0 -133 -22v-392h-33v410q80 34 166 34q78 0 116 -39q92 39 164 39q151 0 151 -142v-302h-33z" glyph-name="m" unicode="m" horiz-adv-x="752"/>
<glyph d="M80 0v414q83 30 166 30q174 0 174 -144v-300h-33v292q0 68 -38 94.5t-103 26.5q-56 0 -133 -18v-395h-33z" glyph-name="n" unicode="n" horiz-adv-x="495"/>
<glyph d="M436 218q0 88 -49.5 142.5t-128.5 54.5t-128.5 -54.5t-49.5 -142.5t49.5 -142.5t128.5 -54.5t128.5 54.5t49.5 142.5zM46 218q0 100 59.5 163t152.5 63t152.5 -63t59.5 -163t-59.5 -163t-152.5 -63t-152.5 63t-59.5 163z" glyph-name="o" unicode="o" horiz-adv-x="516"/>
<glyph d="M113 400v-356q51 -23 110 -23q91 0 142.5 55.5t51.5 143.5q0 94 -54 144.5t-150 50.5q-60 0 -100 -15zM80 -180v599q64 25 133 25q111 0 174.5 -57.5t63.5 -166.5q0 -105 -63.5 -166.5t-164.5 -61.5q-69 0 -110 22v-194h-33z" glyph-name="p" unicode="p" horiz-adv-x="497"/>
<glyph d="M385 41v360q-44 14 -90 14q-97 0 -156 -53t-59 -144q0 -93 54 -145t148 -52q51 0 103 20zM418 419v-599h-33v194q-42 -22 -103 -22q-105 0 -170.5 58.5t-65.5 167.5q0 104 69.5 165t179.5 61q65 0 123 -25z" glyph-name="q" unicode="q" horiz-adv-x="494"/>
<glyph d="M113 380v-380h-33v395q67 46 148 46q29 0 63 -8v-33q-31 9 -63 9q-70 0 -115 -29z" glyph-name="r" unicode="r" horiz-adv-x="301"/>
<glyph d="M43 36v38q55 -53 122 -53q49 0 76.5 22.5t27.5 65.5q0 41 -25.5 62.5t-83.5 41.5q-59 21 -87 48t-28 73q0 50 34.5 80t89.5 30q63 0 110 -35v-38q-51 44 -110 44q-43 0 -67.5 -21.5t-24.5 -59.5q0 -35 22 -54.5t76 -39.5q33 -12 51 -20.5t38 -23.5t28.5 -36t8.5 -51 q0 -57 -39 -87t-97 -30q-37 0 -70.5 12.5t-51.5 31.5z" glyph-name="s" unicode="s" horiz-adv-x="348"/>
<glyph d="M21 408v28h67v100h33v-100h135v-28h-135v-302q0 -83 67 -83q37 0 78 24v-32q-35 -21 -78 -21q-100 0 -100 106v308h-67z" glyph-name="t" unicode="t" horiz-adv-x="296"/>
<glyph d="M403 436v-428q-77 -16 -135 -16q-196 0 -196 145v299h33v-297q0 -117 163 -117q47 0 102 10v404h33z" glyph-name="u" unicode="u" horiz-adv-x="482"/>
<glyph d="M219 0h-39l-173 436h35l158 -404l157 404h34z" glyph-name="v" unicode="v" horiz-adv-x="398"/>
<glyph d="M320 436l117 -404l130 404h32l-142 -436h-41l-113 394l-113 -394h-41l-142 436h33l130 -404l116 404h34z" glyph-name="w" unicode="w" horiz-adv-x="606"/>
<glyph d="M358 436l-149 -211l158 -225h-38l-141 201l-139 -201h-37l158 225l-149 211h38l132 -188l130 188h37z" glyph-name="x" unicode="x" horiz-adv-x="379"/>
<glyph d="M42 436l171 -421l160 421h33l-236 -616h-33l59 153l-189 463h35z" glyph-name="y" unicode="y" horiz-adv-x="413"/>
<glyph d="M363 28v-28h-326v30l282 378h-266v28h305v-28l-286 -380h291z" glyph-name="z" unicode="z" horiz-adv-x="399"/>
<glyph d="M165 545v-169q0 -34 -14.5 -58.5t-29.5 -33t-32 -13.5q17 -5 32 -13.5t29.5 -33t14.5 -58.5v-169q0 -109 88 -109h21v-26h-13q-67 0 -97 34t-30 101v163q0 52 -24.5 75t-60.5 23h-31v26h31q36 0 60.5 23t24.5 75v163q0 67 30 101t97 34h13v-26h-21q-88 0 -88 -109z" glyph-name="braceleft" unicode="{" horiz-adv-x="314"/>
<glyph d="M96 -138v818h30v-818h-30z" glyph-name="bar" unicode="|" horiz-adv-x="222"/>
<glyph d="M149 -3v169q0 34 14.5 58.5t29.5 33t32 13.5q-17 5 -32 13.5t-29.5 33t-14.5 58.5v169q0 109 -88 109h-21v26h13q67 0 97 -34t30 -101v-163q0 -52 24.5 -75t60.5 -23h31v-26h-31q-36 0 -60.5 -23t-24.5 -75v-163q0 -67 -30 -101t-97 -34h-13v26h21q88 0 88 109z" glyph-name="braceright" unicode="}" horiz-adv-x="314"/>
<glyph d="M318 304h30q0 -43 -20.5 -68.5t-58.5 -25.5q-32 0 -73 34.5t-64 34.5q-24 0 -37 -18t-13 -48h-30q0 43 21 68.5t58 25.5q32 0 72.5 -35t64.5 -35t37 18t13 49z" glyph-name="asciitilde" unicode="~" horiz-adv-x="401"/>
<glyph glyph-name="uni00A0" unicode=" " horiz-adv-x="190"/>
<glyph d="M90 410q0 12 8 20t20 8t20 -8t8 -20t-8 -20t-20 -8t-20 8t-8 20zM135 279v-437h-34v437h34z" glyph-name="exclamdown" unicode="¡" horiz-adv-x="236"/>
<glyph d="M246 23v384q-70 -7 -116 -58t-46 -134q0 -81 45 -132.5t117 -59.5zM273 528v-90q67 -2 116 -36v-37q-47 40 -116 43v-386q70 1 123 38v-33q-46 -33 -123 -35v-87h-27v88q-85 8 -140.5 68t-55.5 155q0 96 56 155t140 66v91h27z" glyph-name="cent" unicode="¢" horiz-adv-x="441"/>
<glyph d="M110 274h-76v27h76v114q0 89 43 138t119 49q80 0 123 -50v-39q-50 59 -123 59q-62 0 -96.5 -40.5t-34.5 -116.5v-114h163v-27h-163v-58q0 -67 -17.5 -109t-54.5 -78h340v-29h-378v29q42 36 60.5 78.5t18.5 108.5v58z" glyph-name="sterling" unicode="£" horiz-adv-x="430"/>
<glyph d="M107 304q0 -66 42.5 -109t105.5 -43q62 0 104.5 43t42.5 109q0 67 -42.5 110t-104.5 43q-63 0 -105.5 -43t-42.5 -110zM55 126l62 63q-40 48 -40 115q0 69 41 116l-63 63l22 21l62 -63q49 41 116 41q68 0 115 -41l63 63l21 -21l-63 -63q41 -47 41 -116q0 -67 -41 -116 l63 -61l-21 -21l-63 61q-48 -40 -115 -40q-66 0 -117 40l-62 -62z" glyph-name="currency" unicode="¤" horiz-adv-x="510"/>
<glyph d="M208 275l-188 319h36l180 -309l180 309h35l-189 -319h129v-26h-140v-72h140v-26h-140v-151h-32v151h-139v26h139v72h-139v26h128z" glyph-name="yen" unicode="¥" horiz-adv-x="471"/>
<glyph d="M96 -138v341h30v-341h-30zM96 339v341h30v-341h-30z" glyph-name="brokenbar" unicode="¦" horiz-adv-x="222"/>
<glyph d="M340 237q0 42 -31 67.5t-110 57.5q-2 1 -13.5 6t-16.5 7q-46 -12 -76 -42t-30 -74q0 -41 29.5 -65t110.5 -59q5 -3 16.5 -7.5t14.5 -6.5q45 12 75.5 42.5t30.5 73.5zM83 -64v35q53 -48 120 -48q42 0 68.5 22t26.5 60q0 37 -24.5 58t-87.5 47q-85 36 -119.5 65t-34.5 84 q0 49 30 82.5t76 48.5q-68 39 -68 102q0 51 35 80.5t91 29.5q69 0 118 -41v-35q-53 48 -118 48q-42 0 -68 -22t-26 -60q0 -37 25.5 -58.5t89.5 -47.5q85 -35 119.5 -64t34.5 -85q0 -49 -30.5 -82.5t-76.5 -48.5q65 -38 65 -101q0 -51 -35 -80.5t-91 -29.5q-71 0 -120 41z " glyph-name="section" unicode="§" horiz-adv-x="403"/>
<glyph d="M324 536q-11 0 -19 7.5t-8 19.5t8 19.5t19 7.5t19 -7.5t8 -19.5t-8 -19.5t-19 -7.5zM176 536q-11 0 -19 7.5t-8 19.5t8 19.5t19 7.5t19 -7.5t8 -19.5t-8 -19.5t-19 -7.5z" glyph-name="dieresis" unicode="¨" horiz-adv-x="500"/>
<glyph d="M470 175v-35q-49 -32 -110 -32q-81 0 -133 52.5t-52 135.5q0 84 52.5 136.5t132.5 52.5q59 0 108 -33v-35q-44 38 -108 38q-66 0 -109.5 -44.5t-43.5 -114.5q0 -71 43.5 -115t110.5 -44q64 0 109 38zM68 297q0 -122 79 -202.5t200 -80.5t200 80.5t79 202.5 q0 123 -79 203.5t-200 80.5t-200 -80.5t-79 -203.5zM45 297q0 130 86 217.5t216 87.5t215.5 -87.5t85.5 -217.5q0 -129 -85.5 -216.5t-215.5 -87.5t-216 87.5t-86 216.5z" glyph-name="copyright" unicode="©" horiz-adv-x="693"/>
<glyph d="M238 279v143h-39q-69 0 -104 -16.5t-35 -59.5q0 -74 123 -74q28 0 55 7zM238 451v44q0 77 -77 77q-51 0 -100 -28v32q41 26 100 26q52 0 81 -25.5t29 -75.5v-245q-43 -12 -88 -12q-75 0 -116.5 26t-41.5 76q0 105 173 105h40z" glyph-name="ordfeminine" unicode="ª" horiz-adv-x="310"/>
<glyph d="M328 373l-123 -158l123 -158h-37l-123 158l123 158h37zM210 373l-123 -158l123 -158h-37l-123 158l123 158h37z" glyph-name="guillemotleft" unicode="«" horiz-adv-x="378"/>
<glyph d="M64 247v29h227v-29h-227z" glyph-name="uni00AD" unicode="­" horiz-adv-x="355"/>
<glyph d="M197 492v-79h23q21 0 35 10.5t14 30.5q0 40 -51 40q-9 0 -21 -2zM197 392v-72h-24v192q23 5 44 5q36 0 56.5 -16.5t20.5 -46.5q0 -23 -13 -37.5t-32 -19.5l63 -77h-31l-57 72h-27zM227 249q72 0 117.5 47t45.5 119t-45.5 119t-117.5 47t-117.5 -47t-45.5 -119t45.5 -119 t117.5 -47zM227 229q-79 0 -132 53.5t-53 132.5t53 132.5t132 53.5t132 -53.5t53 -132.5t-53 -132.5t-132 -53.5z" glyph-name="registered" unicode="®" horiz-adv-x="455"/>
<glyph d="M153 536v27h193v-27h-193z" glyph-name="macron" unicode="¯" horiz-adv-x="500"/>
<glyph d="M55 494q0 -35 22 -57.5t57 -22.5t57 22.5t22 57.5t-22 57t-57 22t-57 -22t-22 -57zM28 494q0 44 30 73.5t76 29.5q45 0 75.5 -29.5t30.5 -73.5t-30.5 -74t-75.5 -30q-46 0 -76 30t-30 74z" glyph-name="degree" unicode="°" horiz-adv-x="268"/>
<glyph d="M40 116v29h355v-29h-355zM203 326h-163v29h163v123h29v-123h163v-29h-163v-123h-29v123z" glyph-name="plusminus" unicode="±" horiz-adv-x="435"/>
<glyph d="M47 305h159v-27h-200v23q158 119 158 204q0 30 -16.5 47.5t-47.5 17.5q-45 0 -85 -40v30q35 38 90 38q41 0 65.5 -24t24.5 -65q0 -50 -42 -104.5t-106 -99.5z" glyph-name="twosuperior" unicode="²" horiz-adv-x="224"/>
<glyph d="M15 534v30q36 34 85 34q43 0 66 -21.5t23 -56.5q0 -31 -20.5 -53t-51.5 -27q33 -4 56 -25t23 -54q0 -39 -28.5 -63t-77.5 -24q-50 0 -79 24v28q34 -27 78 -27q36 0 56.5 17t20.5 46q0 59 -90 65v24q38 2 60 20.5t22 46.5q0 24 -16 38.5t-45 14.5q-43 0 -82 -37z" glyph-name="threesuperior" unicode="³" horiz-adv-x="216"/>
<glyph d="M224 513h-33l85 152h33z" glyph-name="acute" unicode="´" horiz-adv-x="500"/>
<glyph d="M72 -180v616h33v-297q0 -117 163 -117q47 0 102 10v404h33v-428q-77 -16 -135 -16q-124 0 -163 57v-229h-33z" glyph-name="mu" unicode="µ" horiz-adv-x="482"/>
<glyph d="M190 -106v422q-74 0 -122 35t-48 104t48 104t122 35h33v-700h-33zM281 -106v700h32v-700h-32z" glyph-name="paragraph" unicode="¶" horiz-adv-x="394"/>
<glyph d="M70 261q0 12 8 20t20 8t20 -8t8 -20t-8 -20t-20 -8t-20 8t-8 20z" glyph-name="periodcentered" unicode="·" horiz-adv-x="196"/>
<glyph d="M261 8h30q0 -46 -19.5 -88t-50.5 -67h-35q75 65 75 155z" glyph-name="cedilla" unicode="¸" horiz-adv-x="500"/>
<glyph d="M8 552v28l100 18v-320h-31v286z" glyph-name="onesuperior" unicode="¹" horiz-adv-x="158"/>
<glyph d="M327 423q0 68 -37.5 108.5t-98.5 40.5t-99 -40.5t-38 -108.5t38 -108.5t99 -40.5t98.5 40.5t37.5 108.5zM20 423q0 80 47.5 129.5t123.5 49.5q75 0 122.5 -49.5t47.5 -129.5t-47.5 -129t-122.5 -49t-123 49t-48 129z" glyph-name="ordmasculine" unicode="º" horiz-adv-x="381"/>
<glyph d="M291 215l-123 158h37l123 -158l-123 -158h-37zM173 215l-123 158h37l123 -158l-123 -158h-37z" glyph-name="guillemotright" unicode="»" horiz-adv-x="378"/>
<glyph d="M75 0l337 595h32l-337 -595h-32zM444 283l-133 -172h133v172zM473 318v-207h58v-24h-58v-87h-29v87h-163v25l161 206h31zM40 552v28l100 18v-320h-31v286z" glyph-name="onequarter" unicode="¼" horiz-adv-x="591"/>
<glyph d="M75 0l337 595h32l-337 -595h-32zM40 552v28l100 18v-320h-31v286zM391 27h159v-27h-200v23q158 119 158 204q0 29 -16.5 47t-47.5 18q-45 0 -85 -40v30q35 38 90 38q41 0 65.5 -24.5t24.5 -65.5q0 -49 -42.5 -103.5t-105.5 -99.5z" glyph-name="onehalf" unicode="½" horiz-adv-x="610"/>
<glyph d="M128 0l337 595h32l-337 -595h-32zM497 283l-133 -172h133v172zM526 318v-207h58v-24h-58v-87h-29v87h-163v25l161 206h31zM54 534v30q36 34 85 34q43 0 66 -21.5t23 -56.5q0 -31 -20.5 -53t-51.5 -27q33 -4 56 -25t23 -54q0 -39 -28.5 -63t-77.5 -24q-50 0 -79 24v28 q34 -27 78 -27q36 0 56.5 17t20.5 46q0 59 -90 65v24q38 2 60 20.5t22 46.5q0 24 -16 38.5t-45 14.5q-43 0 -82 -37z" glyph-name="threequarters" unicode="¾" horiz-adv-x="644"/>
<glyph d="M253 410q0 -12 -8 -20t-20 -8t-20 8t-8 20t8 20t20 8t20 -8t8 -20zM360 -58v-39q-22 -30 -63.5 -49.5t-88.5 -19.5q-80 0 -124 45.5t-44 115.5q0 35 11.5 65t27.5 49.5t41 36.5t45 26.5t45 18.5v88h34v-106q-84 -30 -127 -69.5t-43 -109.5q0 -56 34.5 -92.5t99.5 -36.5 q89 0 152 77z" glyph-name="questiondown" unicode="¿" horiz-adv-x="379"/>
<glyph d="M282 647h-32l-73 131h32zM405 210l-139 353l-136 -353h275zM417 180h-299l-69 -180h-35l233 594h41l235 -594h-35z" glyph-name="Agrave" unicode="À" horiz-adv-x="537"/>
<glyph d="M286 647h-32l73 131h32zM405 210l-139 353l-136 -353h275zM417 180h-299l-69 -180h-35l233 594h41l235 -594h-35z" glyph-name="Aacute" unicode="Á" horiz-adv-x="537"/>
<glyph d="M276 774l109 -133h-34l-83 101l-83 -101h-34l109 133h16zM405 210l-139 353l-136 -353h275zM417 180h-299l-69 -180h-35l233 594h41l235 -594h-35z" glyph-name="Acircumflex" unicode="Â" horiz-adv-x="537"/>
<glyph d="M361 736h26q0 -44 -16.5 -69.5t-46.5 -25.5q-23 0 -42.5 17.5t-36 35t-31.5 17.5q-38 0 -38 -67h-26q0 44 16.5 69.5t46.5 25.5q23 0 42 -17.5t36 -35t32 -17.5q38 0 38 67zM405 210l-139 353l-136 -353h275zM417 180h-299l-69 -180h-35l233 594h41l235 -594h-35z" glyph-name="Atilde" unicode="Ã" horiz-adv-x="537"/>
<glyph d="M342 655q-11 0 -19 7.5t-8 19.5t8 19.5t19 7.5t19 -7.5t8 -19.5t-8 -19.5t-19 -7.5zM194 655q-11 0 -19 7.5t-8 19.5t8 19.5t19 7.5t19 -7.5t8 -19.5t-8 -19.5t-19 -7.5zM405 210l-139 353l-136 -353h275zM417 180h-299l-69 -180h-35l233 594h41l235 -594h-35z" glyph-name="Adieresis" unicode="Ä" horiz-adv-x="537"/>
<glyph d="M319 702q0 23 -13.5 37t-37.5 14t-37.5 -14t-13.5 -37q0 -22 14 -36.5t37 -14.5q24 0 37.5 14.5t13.5 36.5zM191 702q0 32 22.5 53.5t54.5 21.5t54.5 -21.5t22.5 -53.5t-22.5 -53.5t-54.5 -21.5t-54.5 21.5t-22.5 53.5zM405 210l-139 353l-136 -353h275zM417 180h-299 l-69 -180h-35l233 594h41l235 -594h-35z" glyph-name="Aring" unicode="Å" horiz-adv-x="537"/>
<glyph d="M192 210h241v357zM172 180l-122 -180h-36l402 594h337v-30h-286v-244h269v-30h-269v-260h289v-30h-323v180h-261z" glyph-name="AE" unicode="Æ" horiz-adv-x="808"/>
<glyph d="M289 -147h-35q68 60 74 140q-123 10 -200.5 93t-77.5 211q0 134 84.5 219.5t213.5 85.5q97 0 164 -45v-40q-63 54 -164 54q-112 0 -188 -75t-76 -199t78.5 -199t195.5 -75q102 0 164 47v-36q-56 -42 -164 -42q-3 -42 -22 -79.5t-47 -59.5z" glyph-name="Ccedilla" unicode="Ç" horiz-adv-x="567"/>
<glyph d="M275 647h-32l-73 131h32zM127 30h289v-30h-323v594h320v-30h-286v-244h269v-30h-269v-260z" glyph-name="Egrave" unicode="È" horiz-adv-x="468"/>
<glyph d="M272 647h-32l73 131h32zM127 30h289v-30h-323v594h320v-30h-286v-244h269v-30h-269v-260z" glyph-name="Eacute" unicode="É" horiz-adv-x="468"/>
<glyph d="M266 774l109 -133h-34l-83 101l-83 -101h-34l109 133h16zM127 30h289v-30h-323v594h320v-30h-286v-244h269v-30h-269v-260z" glyph-name="Ecircumflex" unicode="Ê" horiz-adv-x="468"/>
<glyph d="M332 655q-11 0 -19 7.5t-8 19.5t8 19.5t19 7.5t19 -7.5t8 -19.5t-8 -19.5t-19 -7.5zM184 655q-11 0 -19 7.5t-8 19.5t8 19.5t19 7.5t19 -7.5t8 -19.5t-8 -19.5t-19 -7.5zM127 30h289v-30h-323v594h320v-30h-286v-244h269v-30h-269v-260z" glyph-name="Edieresis" unicode="Ë" horiz-adv-x="468"/>
<glyph d="M127 647h-32l-73 131h32zM127 594v-594h-34v594h34z" glyph-name="Igrave" unicode="Ì" horiz-adv-x="220"/>
<glyph d="M124 647h-32l73 131h32zM127 594v-594h-34v594h34z" glyph-name="Iacute" unicode="Í" horiz-adv-x="220"/>
<glyph d="M118 774l109 -133h-34l-83 101l-83 -101h-34l109 133h16zM127 594v-594h-34v594h34z" glyph-name="Icircumflex" unicode="Î" horiz-adv-x="220"/>
<glyph d="M184 655q-11 0 -19 7.5t-8 19.5t8 19.5t19 7.5t19 -7.5t8 -19.5t-8 -19.5t-19 -7.5zM36 655q-11 0 -19 7.5t-8 19.5t8 19.5t19 7.5t19 -7.5t8 -19.5t-8 -19.5t-19 -7.5zM127 594v-594h-34v594h34z" glyph-name="Idieresis" unicode="Ï" horiz-adv-x="220"/>
<glyph d="M134 290v-262q43 -5 81 -5q154 0 237.5 72.5t83.5 212.5q0 125 -84.5 194t-251.5 69q-28 0 -66 -3v-248h152v-30h-152zM100 290h-60v30h60v275q53 6 100 6q189 0 279.5 -79t90.5 -214q0 -143 -88.5 -229t-266.5 -86q-51 0 -115 8v289z" glyph-name="Eth" unicode="Ð" horiz-adv-x="620"/>
<glyph d="M416 736h26q0 -44 -16.5 -69.5t-46.5 -25.5q-29 0 -61 35t-49 35q-38 0 -38 -67h-26q0 44 16.5 69.5t46.5 25.5q22 0 41.5 -17.5t36.5 -35t32 -17.5q38 0 38 67zM127 594l394 -545v545h33v-594h-34l-394 545v-545h-33v594h34z" glyph-name="Ntilde" unicode="Ñ" horiz-adv-x="647"/>
<glyph d="M366 647h-32l-73 131h32zM614 297q0 124 -75.5 199t-189.5 75t-189.5 -75t-75.5 -199t75.5 -199t189.5 -75t189.5 75t75.5 199zM50 297q0 135 84.5 220t214.5 85t214.5 -85t84.5 -220t-84.5 -220t-214.5 -85t-214.5 85t-84.5 220z" glyph-name="Ograve" unicode="Ò" horiz-adv-x="698"/>
<glyph d="M363 647h-32l73 131h32zM614 297q0 124 -75.5 199t-189.5 75t-189.5 -75t-75.5 -199t75.5 -199t189.5 -75t189.5 75t75.5 199zM50 297q0 135 84.5 220t214.5 85t214.5 -85t84.5 -220t-84.5 -220t-214.5 -85t-214.5 85t-84.5 220z" glyph-name="Oacute" unicode="Ó" horiz-adv-x="698"/>
<glyph d="M357 774l109 -133h-34l-83 101l-83 -101h-34l109 133h16zM614 297q0 124 -75.5 199t-189.5 75t-189.5 -75t-75.5 -199t75.5 -199t189.5 -75t189.5 75t75.5 199zM50 297q0 135 84.5 220t214.5 85t214.5 -85t84.5 -220t-84.5 -220t-214.5 -85t-214.5 85t-84.5 220z" glyph-name="Ocircumflex" unicode="Ô" horiz-adv-x="698"/>
<glyph d="M442 736h26q0 -44 -16.5 -69.5t-46.5 -25.5q-29 0 -61 35t-49 35q-38 0 -38 -67h-26q0 44 16.5 69.5t46.5 25.5q22 0 41.5 -17.5t36.5 -35t32 -17.5q38 0 38 67zM614 297q0 124 -75.5 199t-189.5 75t-189.5 -75t-75.5 -199t75.5 -199t189.5 -75t189.5 75t75.5 199z M50 297q0 135 84.5 220t214.5 85t214.5 -85t84.5 -220t-84.5 -220t-214.5 -85t-214.5 85t-84.5 220z" glyph-name="Otilde" unicode="Õ" horiz-adv-x="698"/>
<glyph d="M423 655q-11 0 -19 7.5t-8 19.5t8 19.5t19 7.5t19 -7.5t8 -19.5t-8 -19.5t-19 -7.5zM275 655q-11 0 -19 7.5t-8 19.5t8 19.5t19 7.5t19 -7.5t8 -19.5t-8 -19.5t-19 -7.5zM614 297q0 124 -75.5 199t-189.5 75t-189.5 -75t-75.5 -199t75.5 -199t189.5 -75t189.5 75 t75.5 199zM50 297q0 135 84.5 220t214.5 85t214.5 -85t84.5 -220t-84.5 -220t-214.5 -85t-214.5 85t-84.5 220z" glyph-name="Odieresis" unicode="Ö" horiz-adv-x="698"/>
<glyph d="M161 291l-121 122l21 20l120 -122l120 122l21 -20l-120 -122l120 -122l-21 -20l-120 121l-120 -121l-21 20z" glyph-name="multiply" unicode="×" horiz-adv-x="362"/>
<glyph d="M146 109l386 396q-72 66 -183 66q-114 0 -189.5 -75t-75.5 -199q0 -115 62 -188zM551 485l-386 -396q72 -66 184 -66q114 0 189.5 75t75.5 199q0 116 -63 188zM658 594l-85 -87q75 -85 75 -210q0 -135 -84.5 -220t-214.5 -85q-122 0 -205 75l-65 -67h-39l85 87 q-75 85 -75 210q0 135 84.5 220t214.5 85q120 0 204 -76l66 68h39z" glyph-name="Oslash" unicode="Ø" horiz-adv-x="698"/>
<glyph d="M304 647h-32l-73 131h32zM76 194v400h34v-404q0 -167 210 -167q79 0 145 15v556h34v-579q-90 -23 -179 -23q-244 0 -244 202z" glyph-name="Ugrave" unicode="Ù" horiz-adv-x="592"/>
<glyph d="M301 647h-32l73 131h32zM76 194v400h34v-404q0 -167 210 -167q79 0 145 15v556h34v-579q-90 -23 -179 -23q-244 0 -244 202z" glyph-name="Uacute" unicode="Ú" horiz-adv-x="592"/>
<glyph d="M295 774l109 -133h-34l-83 101l-83 -101h-34l109 133h16zM76 194v400h34v-404q0 -167 210 -167q79 0 145 15v556h34v-579q-90 -23 -179 -23q-244 0 -244 202z" glyph-name="Ucircumflex" unicode="Û" horiz-adv-x="592"/>
<glyph d="M361 655q-11 0 -19 7.5t-8 19.5t8 19.5t19 7.5t19 -7.5t8 -19.5t-8 -19.5t-19 -7.5zM213 655q-11 0 -19 7.5t-8 19.5t8 19.5t19 7.5t19 -7.5t8 -19.5t-8 -19.5t-19 -7.5zM76 194v400h34v-404q0 -167 210 -167q79 0 145 15v556h34v-579q-90 -23 -179 -23q-244 0 -244 202z " glyph-name="Udieresis" unicode="Ü" horiz-adv-x="592"/>
<glyph d="M262 647h-32l73 131h32zM249 277l197 317h37l-218 -350v-244h-34v244l-217 350h38z" glyph-name="Yacute" unicode="Ý" horiz-adv-x="497"/>
<glyph d="M127 458v-304q24 -2 45 -2q198 0 198 160q0 67 -46.5 107.5t-149.5 40.5q-25 0 -47 -2zM127 124v-124h-34v594h34v-106q16 2 47 2q113 0 172 -45.5t59 -132.5q0 -90 -60 -140t-173 -50q-23 0 -45 2z" glyph-name="Thorn" unicode="Þ" horiz-adv-x="427"/>
<glyph d="M80 0v532q0 70 38.5 113t107.5 43q57 0 94.5 -33.5t37.5 -89.5q0 -28 -16 -56t-34.5 -47t-34.5 -42t-16 -41q0 -25 19.5 -47t47 -39.5t55 -37.5t47 -51t19.5 -69q0 -63 -38.5 -103t-108.5 -40q-69 0 -108 31v38q41 -41 108 -41q50 0 81.5 30t31.5 85q0 34 -19.5 61 t-47 45.5t-55 36.5t-47 43.5t-19.5 57.5q0 27 25.5 59t51 65t25.5 62q0 40 -27.5 67t-71.5 27q-54 0 -83.5 -33.5t-29.5 -99.5v-526h-33z" glyph-name="germandbls" unicode="ß" horiz-adv-x="475"/>
<glyph d="M231 513h-33l-85 152h33zM310 28v192h-50q-185 0 -185 -100q0 -50 45.5 -75t118.5 -25q39 0 71 8zM310 249v65q0 48 -25.5 74t-73.5 26q-66 0 -124 -33v31q52 32 125 32q131 0 131 -126v-311q-52 -15 -104 -15q-93 0 -145 32.5t-52 95.5q0 129 217 129h51z" glyph-name="agrave" unicode="à" horiz-adv-x="415"/>
<glyph d="M226 513h-33l85 152h33zM310 28v192h-50q-185 0 -185 -100q0 -50 45.5 -75t118.5 -25q39 0 71 8zM310 249v65q0 48 -25.5 74t-73.5 26q-66 0 -124 -33v31q52 32 125 32q131 0 131 -126v-311q-52 -15 -104 -15q-93 0 -145 32.5t-52 95.5q0 129 217 129h51z" glyph-name="aacute" unicode="á" horiz-adv-x="415"/>
<glyph d="M215 651l106 -137h-34l-81 106l-81 -106h-34l106 137h18zM310 28v192h-50q-185 0 -185 -100q0 -50 45.5 -75t118.5 -25q39 0 71 8zM310 249v65q0 48 -25.5 74t-73.5 26q-66 0 -124 -33v31q52 32 125 32q131 0 131 -126v-311q-52 -15 -104 -15q-93 0 -145 32.5t-52 95.5 q0 129 217 129h51z" glyph-name="acircumflex" unicode="â" horiz-adv-x="415"/>
<glyph d="M300 610h26q0 -44 -16.5 -69.5t-46.5 -25.5q-29 0 -61 35t-49 35q-38 0 -38 -67h-26q0 44 16.5 69.5t46.5 25.5q22 0 41.5 -17.5t36.5 -35t32 -17.5q38 0 38 67zM310 28v192h-50q-185 0 -185 -100q0 -50 45.5 -75t118.5 -25q39 0 71 8zM310 249v65q0 48 -25.5 74 t-73.5 26q-66 0 -124 -33v31q52 32 125 32q131 0 131 -126v-311q-52 -15 -104 -15q-93 0 -145 32.5t-52 95.5q0 129 217 129h51z" glyph-name="atilde" unicode="ã" horiz-adv-x="415"/>
<glyph d="M286 536q-11 0 -19 7.5t-8 19.5t8 19.5t19 7.5t19 -7.5t8 -19.5t-8 -19.5t-19 -7.5zM138 536q-11 0 -19 7.5t-8 19.5t8 19.5t19 7.5t19 -7.5t8 -19.5t-8 -19.5t-19 -7.5zM310 28v192h-50q-185 0 -185 -100q0 -50 45.5 -75t118.5 -25q39 0 71 8zM310 249v65q0 48 -25.5 74 t-73.5 26q-66 0 -124 -33v31q52 32 125 32q131 0 131 -126v-311q-52 -15 -104 -15q-93 0 -145 32.5t-52 95.5q0 129 217 129h51z" glyph-name="adieresis" unicode="ä" horiz-adv-x="415"/>
<glyph d="M263 582q0 23 -13.5 37t-37.5 14t-37.5 -14t-13.5 -37q0 -22 14 -36.5t37 -14.5q24 0 37.5 14.5t13.5 36.5zM135 582q0 32 22.5 53.5t54.5 21.5t54.5 -21.5t22.5 -53.5t-22.5 -53.5t-54.5 -21.5t-54.5 21.5t-22.5 53.5zM310 28v192h-50q-185 0 -185 -100q0 -50 45.5 -75 t118.5 -25q39 0 71 8zM310 249v65q0 48 -25.5 74t-73.5 26q-66 0 -124 -33v31q52 32 125 32q131 0 131 -126v-311q-52 -15 -104 -15q-93 0 -145 32.5t-52 95.5q0 129 217 129h51z" glyph-name="aring" unicode="å" horiz-adv-x="415"/>
<glyph d="M349 243h312q-2 78 -38 125t-109 47q-69 0 -113.5 -47t-51.5 -125zM317 217h-60q-182 0 -182 -104q0 -45 32.5 -69t81.5 -24q48 0 87.5 23t63.5 65q-21 47 -23 109zM693 217h-345q1 -89 52 -142.5t129 -53.5q84 0 145 48v-32q-55 -45 -145 -45q-116 0 -174 89 q-62 -89 -166 -89q-65 0 -106 31.5t-41 89.5q0 66 57 98t156 32h63q3 31 10 54q-3 118 -116 118q-60 0 -128 -34v31q59 32 128 32q117 0 138 -96q26 45 69 70.5t96 25.5q87 0 132.5 -57t45.5 -148v-22z" glyph-name="ae" unicode="æ" horiz-adv-x="737"/>
<glyph d="M200 -147h-35q68 60 74 140q-84 9 -138.5 70t-54.5 156q0 103 63 164t153 61q71 0 123 -36v-36q-51 42 -123 42q-77 0 -129.5 -53t-52.5 -142t52.5 -143t132.5 -54q74 0 127 37v-32q-46 -33 -123 -35q-3 -42 -22 -79.5t-47 -59.5z" glyph-name="ccedilla" unicode="ç" horiz-adv-x="437"/>
<glyph d="M269 513h-33l-85 152h33zM81 254h308q0 74 -37.5 117.5t-102.5 43.5q-63 0 -110.5 -45.5t-57.5 -115.5zM422 227h-344v-7q0 -91 51 -144.5t131 -53.5q85 0 144 50v-35q-53 -45 -144 -45q-92 0 -153 61t-61 167q0 92 58.5 158t144.5 66q80 0 126.5 -51.5t46.5 -138.5v-27z " glyph-name="egrave" unicode="è" horiz-adv-x="466"/>
<glyph d="M264 513h-33l85 152h33zM81 254h308q0 74 -37.5 117.5t-102.5 43.5q-63 0 -110.5 -45.5t-57.5 -115.5zM422 227h-344v-7q0 -91 51 -144.5t131 -53.5q85 0 144 50v-35q-53 -45 -144 -45q-92 0 -153 61t-61 167q0 92 58.5 158t144.5 66q80 0 126.5 -51.5t46.5 -138.5v-27z " glyph-name="eacute" unicode="é" horiz-adv-x="466"/>
<glyph d="M259 651l106 -137h-34l-81 106l-81 -106h-34l106 137h18zM81 254h308q0 74 -37.5 117.5t-102.5 43.5q-63 0 -110.5 -45.5t-57.5 -115.5zM422 227h-344v-7q0 -91 51 -144.5t131 -53.5q85 0 144 50v-35q-53 -45 -144 -45q-92 0 -153 61t-61 167q0 92 58.5 158t144.5 66 q80 0 126.5 -51.5t46.5 -138.5v-27z" glyph-name="ecircumflex" unicode="ê" horiz-adv-x="466"/>
<glyph d="M324 536q-11 0 -19 7.5t-8 19.5t8 19.5t19 7.5t19 -7.5t8 -19.5t-8 -19.5t-19 -7.5zM176 536q-11 0 -19 7.5t-8 19.5t8 19.5t19 7.5t19 -7.5t8 -19.5t-8 -19.5t-19 -7.5zM81 254h308q0 74 -37.5 117.5t-102.5 43.5q-63 0 -110.5 -45.5t-57.5 -115.5zM422 227h-344v-7 q0 -91 51 -144.5t131 -53.5q85 0 144 50v-35q-53 -45 -144 -45q-92 0 -153 61t-61 167q0 92 58.5 158t144.5 66q80 0 126.5 -51.5t46.5 -138.5v-27z" glyph-name="edieresis" unicode="ë" horiz-adv-x="466"/>
<glyph d="M115 513h-33l-85 152h33zM113 436v-436h-33v436h33z" glyph-name="igrave" unicode="ì" horiz-adv-x="193"/>
<glyph d="M114 513h-33l85 152h33zM113 436v-436h-33v436h33z" glyph-name="iacute" unicode="í" horiz-adv-x="193"/>
<glyph d="M105 651l106 -137h-34l-81 106l-81 -106h-34l106 137h18zM113 436v-436h-33v436h33z" glyph-name="icircumflex" unicode="î" horiz-adv-x="193"/>
<glyph d="M170 536q-11 0 -19 7.5t-8 19.5t8 19.5t19 7.5t19 -7.5t8 -19.5t-8 -19.5t-19 -7.5zM22 536q-11 0 -19 7.5t-8 19.5t8 19.5t19 7.5t19 -7.5t8 -19.5t-8 -19.5t-19 -7.5zM113 436v-436h-33v436h33z" glyph-name="idieresis" unicode="ï" horiz-adv-x="193"/>
<glyph d="M436 217q0 87 -49.5 142.5t-128.5 55.5q-78 0 -128 -55t-50 -143q0 -87 50 -141.5t128 -54.5t128 54.5t50 141.5zM422 572l-82 -22q129 -154 129 -328q0 -102 -59 -166t-152 -64q-92 0 -152 63t-60 162q0 100 59.5 163.5t152.5 63.5q117 0 167 -105q-27 102 -116 202 l-179 -48v26l161 43q-58 63 -132 118h44q68 -52 119 -109l100 27v-26z" glyph-name="eth" unicode="ð" horiz-adv-x="515"/>
<glyph d="M334 610h26q0 -44 -16.5 -69.5t-46.5 -25.5q-29 0 -61 35t-49 35q-38 0 -38 -67h-26q0 44 16.5 69.5t46.5 25.5q22 0 41.5 -17.5t36.5 -35t32 -17.5q38 0 38 67zM80 0v414q83 30 166 30q174 0 174 -144v-300h-33v292q0 68 -38 94.5t-103 26.5q-56 0 -133 -18v-395h-33z " glyph-name="ntilde" unicode="ñ" horiz-adv-x="495"/>
<glyph d="M277 513h-33l-85 152h33zM436 218q0 88 -49.5 142.5t-128.5 54.5t-128.5 -54.5t-49.5 -142.5t49.5 -142.5t128.5 -54.5t128.5 54.5t49.5 142.5zM46 218q0 100 59.5 163t152.5 63t152.5 -63t59.5 -163t-59.5 -163t-152.5 -63t-152.5 63t-59.5 163z" glyph-name="ograve" unicode="ò" horiz-adv-x="516"/>
<glyph d="M272 513h-33l85 152h33zM436 218q0 88 -49.5 142.5t-128.5 54.5t-128.5 -54.5t-49.5 -142.5t49.5 -142.5t128.5 -54.5t128.5 54.5t49.5 142.5zM46 218q0 100 59.5 163t152.5 63t152.5 -63t59.5 -163t-59.5 -163t-152.5 -63t-152.5 63t-59.5 163z" glyph-name="oacute" unicode="ó" horiz-adv-x="516"/>
<glyph d="M267 651l106 -137h-34l-81 106l-81 -106h-34l106 137h18zM436 218q0 88 -49.5 142.5t-128.5 54.5t-128.5 -54.5t-49.5 -142.5t49.5 -142.5t128.5 -54.5t128.5 54.5t49.5 142.5zM46 218q0 100 59.5 163t152.5 63t152.5 -63t59.5 -163t-59.5 -163t-152.5 -63t-152.5 63 t-59.5 163z" glyph-name="ocircumflex" unicode="ô" horiz-adv-x="516"/>
<glyph d="M351 610h26q0 -44 -16.5 -69.5t-46.5 -25.5q-23 0 -42.5 17.5t-36 35t-31.5 17.5q-38 0 -38 -67h-26q0 44 16.5 69.5t46.5 25.5q22 0 41.5 -17.5t36.5 -35t32 -17.5q38 0 38 67zM436 218q0 88 -49.5 142.5t-128.5 54.5t-128.5 -54.5t-49.5 -142.5t49.5 -142.5 t128.5 -54.5t128.5 54.5t49.5 142.5zM46 218q0 100 59.5 163t152.5 63t152.5 -63t59.5 -163t-59.5 -163t-152.5 -63t-152.5 63t-59.5 163z" glyph-name="otilde" unicode="õ" horiz-adv-x="516"/>
<glyph d="M332 536q-11 0 -19 7.5t-8 19.5t8 19.5t19 7.5t19 -7.5t8 -19.5t-8 -19.5t-19 -7.5zM184 536q-11 0 -19 7.5t-8 19.5t8 19.5t19 7.5t19 -7.5t8 -19.5t-8 -19.5t-19 -7.5zM436 218q0 88 -49.5 142.5t-128.5 54.5t-128.5 -54.5t-49.5 -142.5t49.5 -142.5t128.5 -54.5 t128.5 54.5t49.5 142.5zM46 218q0 100 59.5 163t152.5 63t152.5 -63t59.5 -163t-59.5 -163t-152.5 -63t-152.5 63t-59.5 163z" glyph-name="odieresis" unicode="ö" horiz-adv-x="516"/>
<glyph d="M188 443q0 12 8.5 20.5t20.5 8.5q13 0 21.5 -8.5t8.5 -20.5q0 -13 -8.5 -21.5t-21.5 -8.5q-12 0 -20.5 8.5t-8.5 21.5zM188 143q0 13 8.5 21.5t20.5 8.5q13 0 21.5 -8.5t8.5 -21.5q0 -12 -8.5 -20.5t-21.5 -8.5q-12 0 -20.5 8.5t-8.5 20.5zM40 278v29h355v-29h-355z" glyph-name="divide" unicode="÷" horiz-adv-x="435"/>
<glyph d="M398 349l-263 -282q48 -46 123 -46q79 0 128.5 54.5t49.5 142.5q0 81 -38 131zM118 87l263 282q-48 46 -123 46q-79 0 -128.5 -54.5t-49.5 -142.5q0 -81 38 -131zM480 436l-60 -64q50 -61 50 -154q0 -100 -59.5 -163t-152.5 -63q-87 0 -143 53l-43 -45h-36l60 64 q-50 61 -50 154q0 100 59.5 163t152.5 63q87 0 143 -53l43 45h36z" glyph-name="oslash" unicode="ø" horiz-adv-x="516"/>
<glyph d="M258 513h-33l-85 152h33zM403 436v-428q-77 -16 -135 -16q-196 0 -196 145v299h33v-297q0 -117 163 -117q47 0 102 10v404h33z" glyph-name="ugrave" unicode="ù" horiz-adv-x="482"/>
<glyph d="M253 513h-33l85 152h33zM403 436v-428q-77 -16 -135 -16q-196 0 -196 145v299h33v-297q0 -117 163 -117q47 0 102 10v404h33z" glyph-name="uacute" unicode="ú" horiz-adv-x="482"/>
<glyph d="M248 651l106 -137h-34l-81 106l-81 -106h-34l106 137h18zM403 436v-428q-77 -16 -135 -16q-196 0 -196 145v299h33v-297q0 -117 163 -117q47 0 102 10v404h33z" glyph-name="ucircumflex" unicode="û" horiz-adv-x="482"/>
<glyph d="M313 536q-11 0 -19 7.5t-8 19.5t8 19.5t19 7.5t19 -7.5t8 -19.5t-8 -19.5t-19 -7.5zM165 536q-11 0 -19 7.5t-8 19.5t8 19.5t19 7.5t19 -7.5t8 -19.5t-8 -19.5t-19 -7.5zM403 436v-428q-77 -16 -135 -16q-196 0 -196 145v299h33v-297q0 -117 163 -117q47 0 102 10v404h33 z" glyph-name="udieresis" unicode="ü" horiz-adv-x="482"/>
<glyph d="M228 513h-33l85 152h33zM42 436l171 -421l160 421h33l-236 -616h-33l59 153l-189 463h35z" glyph-name="yacute" unicode="ý" horiz-adv-x="413"/>
<glyph d="M113 393v-349q51 -23 110 -23q91 0 142.5 55.5t51.5 143.5q0 93 -54.5 144t-138.5 51q-60 0 -111 -22zM80 -180v860h33v-259q44 23 111 23q100 0 163.5 -58t63.5 -166q0 -105 -63.5 -166.5t-164.5 -61.5q-69 0 -110 22v-194h-33z" glyph-name="thorn" unicode="þ" horiz-adv-x="497"/>
<glyph d="M288 536q-11 0 -19 7.5t-8 19.5t8 19.5t19 7.5t19 -7.5t8 -19.5t-8 -19.5t-19 -7.5zM140 536q-11 0 -19 7.5t-8 19.5t8 19.5t19 7.5t19 -7.5t8 -19.5t-8 -19.5t-19 -7.5zM42 436l171 -421l160 421h33l-236 -616h-33l59 153l-189 463h35z" glyph-name="ydieresis" unicode="ÿ" horiz-adv-x="413"/>
<glyph d="M172 660v28h193v-28h-193zM405 210l-139 353l-136 -353h275zM417 180h-299l-69 -180h-35l233 594h41l235 -594h-35z" glyph-name="Amacron" unicode="Ā" horiz-adv-x="537"/>
<glyph d="M112 536v27h193v-27h-193zM310 28v192h-50q-185 0 -185 -100q0 -50 45.5 -75t118.5 -25q39 0 71 8zM310 249v65q0 48 -25.5 74t-73.5 26q-66 0 -124 -33v31q52 32 125 32q131 0 131 -126v-311q-52 -15 -104 -15q-93 0 -145 32.5t-52 95.5q0 129 217 129h51z" glyph-name="amacron" unicode="ā" horiz-adv-x="415"/>
<glyph d="M343 762h28q0 -55 -27.5 -86.5t-75.5 -31.5t-75.5 31.5t-27.5 86.5h28q0 -43 19.5 -67.5t55.5 -24.5t55.5 24.5t19.5 67.5zM405 210l-139 353l-136 -353h275zM417 180h-299l-69 -180h-35l233 594h41l235 -594h-35z" glyph-name="Abreve" unicode="Ă" horiz-adv-x="537"/>
<glyph d="M287 630h28q0 -56 -27.5 -88t-75.5 -32t-75.5 32t-27.5 88h28q0 -43 19.5 -68.5t55.5 -25.5t55.5 25.5t19.5 68.5zM310 28v192h-50q-185 0 -185 -100q0 -50 45.5 -75t118.5 -25q39 0 71 8zM310 249v65q0 48 -25.5 74t-73.5 26q-66 0 -124 -33v31q52 32 125 32 q131 0 131 -126v-311q-52 -15 -104 -15q-93 0 -145 32.5t-52 95.5q0 129 217 129h51z" glyph-name="abreve" unicode="ă" horiz-adv-x="415"/>
<glyph d="M266 563l-136 -353h275zM523 0h-16q-71 -67 -71 -121q0 -19 11 -29t28 -10q27 0 47 12v-27q-22 -11 -50 -11q-29 0 -47 16t-18 46q0 65 77 133l-67 171h-299l-69 -180h-35l233 594h41z" glyph-name="Aogonek" unicode="Ą" horiz-adv-x="537"/>
<glyph d="M310 28v192h-50q-185 0 -185 -100q0 -50 45.5 -75t118.5 -25q39 0 71 8zM310 249v65q0 48 -25.5 74t-73.5 26q-66 0 -124 -33v31q52 32 125 32q131 0 131 -126v-311q-86 -75 -86 -128q0 -19 11 -29t28 -10q27 0 47 12v-27q-22 -11 -50 -11q-29 0 -47 16t-18 46 q0 56 75 122q-42 -6 -64 -6q-93 0 -145 32.5t-52 95.5q0 129 217 129h51z" glyph-name="aogonek" unicode="ą" horiz-adv-x="415"/>
<glyph d="M360 647h-32l73 131h32zM512 557v-40q-63 54 -164 54q-112 0 -188 -75t-76 -199t78.5 -199t195.5 -75q102 0 164 47v-36q-56 -42 -164 -42q-135 0 -221.5 84.5t-86.5 220.5q0 134 84.5 219.5t213.5 85.5q97 0 164 -45z" glyph-name="Cacute" unicode="Ć" horiz-adv-x="567"/>
<glyph d="M271 513h-33l85 152h33zM385 408v-36q-51 42 -123 42q-77 0 -129.5 -53t-52.5 -142t52.5 -143t132.5 -54q74 0 127 37v-32q-48 -35 -127 -35q-93 0 -156 62.5t-63 164.5q0 103 63 164t153 61q71 0 123 -36z" glyph-name="cacute" unicode="ć" horiz-adv-x="437"/>
<glyph d="M354 774l109 -133h-34l-83 101l-83 -101h-34l109 133h16zM512 557v-40q-63 54 -164 54q-112 0 -188 -75t-76 -199t78.5 -199t195.5 -75q102 0 164 47v-36q-56 -42 -164 -42q-135 0 -221.5 84.5t-86.5 220.5q0 134 84.5 219.5t213.5 85.5q97 0 164 -45z" glyph-name="Ccircumflex" unicode="Ĉ" horiz-adv-x="567"/>
<glyph d="M266 651l106 -137h-34l-81 106l-81 -106h-34l106 137h18zM385 408v-36q-51 42 -123 42q-77 0 -129.5 -53t-52.5 -142t52.5 -143t132.5 -54q74 0 127 37v-32q-48 -35 -127 -35q-93 0 -156 62.5t-63 164.5q0 103 63 164t153 61q71 0 123 -36z" glyph-name="ccircumflex" unicode="ĉ" horiz-adv-x="437"/>
<glyph d="M346 655q-11 0 -19 7.5t-8 19.5t8 19.5t19 7.5t19 -7.5t8 -19.5t-8 -19.5t-19 -7.5zM512 557v-40q-63 54 -164 54q-112 0 -188 -75t-76 -199t78.5 -199t195.5 -75q102 0 164 47v-36q-56 -42 -164 -42q-135 0 -221.5 84.5t-86.5 220.5q0 134 84.5 219.5t213.5 85.5 q97 0 164 -45z" glyph-name="Cdotaccent" unicode="Ċ" horiz-adv-x="567"/>
<glyph d="M257 536q-11 0 -19 7.5t-8 19.5t8 19.5t19 7.5t19 -7.5t8 -19.5t-8 -19.5t-19 -7.5zM385 408v-36q-51 42 -123 42q-77 0 -129.5 -53t-52.5 -142t52.5 -143t132.5 -54q74 0 127 37v-32q-48 -35 -127 -35q-93 0 -156 62.5t-63 164.5q0 103 63 164t153 61q71 0 123 -36z" glyph-name="cdotaccent" unicode="ċ" horiz-adv-x="437"/>
<glyph d="M461 778l-106 -132h-18l-106 132h34l81 -104l81 104h34zM512 557v-40q-63 54 -164 54q-112 0 -188 -75t-76 -199t78.5 -199t195.5 -75q102 0 164 47v-36q-56 -42 -164 -42q-135 0 -221.5 84.5t-86.5 220.5q0 134 84.5 219.5t213.5 85.5q97 0 164 -45z" glyph-name="Ccaron" unicode="Č" horiz-adv-x="567"/>
<glyph d="M372 640l-106 -137h-18l-106 137h35l80 -107l80 107h35zM385 408v-36q-51 42 -123 42q-77 0 -129.5 -53t-52.5 -142t52.5 -143t132.5 -54q74 0 127 37v-32q-48 -35 -127 -35q-93 0 -156 62.5t-63 164.5q0 103 63 164t153 61q71 0 123 -36z" glyph-name="ccaron" unicode="č" horiz-adv-x="437"/>
<glyph d="M403 778l-106 -132h-18l-106 132h34l81 -104l81 104h34zM127 568v-540q43 -5 81 -5q154 0 237.5 72.5t83.5 212.5q0 125 -84.5 194t-251.5 69q-29 0 -66 -3zM93 1v594q53 6 100 6q189 0 279.5 -79t90.5 -214q0 -143 -88.5 -229t-266.5 -86q-51 0 -115 8z" glyph-name="Dcaron" unicode="Ď" horiz-adv-x="613"/>
<glyph d="M539 680l-40 -148h-30l40 148h30zM386 28v364q-44 23 -108 23q-86 0 -142 -52.5t-56 -145.5q0 -92 58.5 -144t156.5 -52q52 0 91 7zM419 680v-675q-64 -13 -124 -13q-113 0 -181 59.5t-68 165.5q0 107 67.5 167t164.5 60q68 0 108 -22v258h33z" glyph-name="dcaron" unicode="ď" horiz-adv-x="495"/>
<glyph d="M134 290v-262q43 -5 81 -5q154 0 237.5 72.5t83.5 212.5q0 125 -84.5 194t-251.5 69q-28 0 -66 -3v-248h152v-30h-152zM100 290h-60v30h60v275q53 6 100 6q189 0 279.5 -79t90.5 -214q0 -143 -88.5 -229t-266.5 -86q-51 0 -115 8v289z" glyph-name="Dcroat" unicode="Đ" horiz-adv-x="620"/>
<glyph d="M386 28v364q-44 23 -108 23q-86 0 -142 -52.5t-56 -145.5q0 -92 58.5 -144t156.5 -52q52 0 91 7zM386 534h-141v27h141v119h33v-119h71v-27h-71v-529q-64 -13 -124 -13q-113 0 -181 59.5t-68 165.5q0 107 67.5 167t164.5 60q68 0 108 -22v112z" glyph-name="dcroat" unicode="đ" horiz-adv-x="505"/>
<glyph d="M162 660v28h193v-28h-193zM127 30h289v-30h-323v594h320v-30h-286v-244h269v-30h-269v-260z" glyph-name="Emacron" unicode="Ē" horiz-adv-x="468"/>
<glyph d="M154 536v27h193v-27h-193zM81 254h308q0 74 -37.5 117.5t-102.5 43.5q-63 0 -110.5 -45.5t-57.5 -115.5zM422 227h-344v-7q0 -91 51 -144.5t131 -53.5q85 0 144 50v-35q-53 -45 -144 -45q-92 0 -153 61t-61 167q0 92 58.5 158t144.5 66q80 0 126.5 -51.5t46.5 -138.5v-27 z" glyph-name="emacron" unicode="ē" horiz-adv-x="466"/>
<glyph d="M333 762h28q0 -55 -27.5 -86.5t-75.5 -31.5t-75.5 31.5t-27.5 86.5h28q0 -43 19.5 -67.5t55.5 -24.5t55.5 24.5t19.5 67.5zM127 30h289v-30h-323v594h320v-30h-286v-244h269v-30h-269v-260z" glyph-name="Ebreve" unicode="Ĕ" horiz-adv-x="468"/>
<glyph d="M325 630h28q0 -56 -27.5 -88t-75.5 -32t-75.5 32t-27.5 88h28q0 -43 19.5 -68.5t55.5 -25.5t55.5 25.5t19.5 68.5zM81 254h308q0 74 -37.5 117.5t-102.5 43.5q-63 0 -110.5 -45.5t-57.5 -115.5zM422 227h-344v-7q0 -91 51 -144.5t131 -53.5q85 0 144 50v-35 q-53 -45 -144 -45q-92 0 -153 61t-61 167q0 92 58.5 158t144.5 66q80 0 126.5 -51.5t46.5 -138.5v-27z" glyph-name="ebreve" unicode="ĕ" horiz-adv-x="466"/>
<glyph d="M258 655q-11 0 -19 7.5t-8 19.5t8 19.5t19 7.5t19 -7.5t8 -19.5t-8 -19.5t-19 -7.5zM127 30h289v-30h-323v594h320v-30h-286v-244h269v-30h-269v-260z" glyph-name="Edotaccent" unicode="Ė" horiz-adv-x="468"/>
<glyph d="M250 536q-11 0 -19 7.5t-8 19.5t8 19.5t19 7.5t19 -7.5t8 -19.5t-8 -19.5t-19 -7.5zM81 254h308q0 74 -37.5 117.5t-102.5 43.5q-63 0 -110.5 -45.5t-57.5 -115.5zM422 227h-344v-7q0 -91 51 -144.5t131 -53.5q85 0 144 50v-35q-53 -45 -144 -45q-92 0 -153 61t-61 167 q0 92 58.5 158t144.5 66q80 0 126.5 -51.5t46.5 -138.5v-27z" glyph-name="edotaccent" unicode="ė" horiz-adv-x="466"/>
<glyph d="M348 0h-255v594h320v-30h-286v-244h269v-30h-269v-260h289v-30h-39q-71 -68 -71 -121q0 -19 11 -29t28 -10q27 0 47 12v-27q-22 -11 -50 -11q-29 0 -47 16t-18 46q0 63 71 124z" glyph-name="Eogonek" unicode="Ę" horiz-adv-x="468"/>
<glyph d="M81 254h308q0 74 -37.5 117.5t-102.5 43.5q-63 0 -110 -45.5t-58 -115.5zM422 227h-344v-7q0 -91 51 -144.5t131 -53.5q85 0 144 50v-35q-12 -11 -49 -29q-90 -44 -90 -121q0 -23 12 -35t30 -12q27 0 47 12v-27q-22 -11 -50 -11q-29 0 -48.5 18t-19.5 51q0 69 64 113 q-19 -4 -40 -4q-92 0 -153 61t-61 167q0 92 58.5 158t144.5 66q80 0 126.5 -51.5t46.5 -138.5v-27z" glyph-name="eogonek" unicode="ę" horiz-adv-x="466"/>
<glyph d="M373 778l-106 -132h-18l-106 132h34l81 -104l81 104h34zM127 30h289v-30h-323v594h320v-30h-286v-244h269v-30h-269v-260z" glyph-name="Ecaron" unicode="Ě" horiz-adv-x="468"/>
<glyph d="M365 640l-106 -137h-18l-106 137h35l80 -107l80 107h35zM81 254h308q0 74 -37.5 117.5t-102.5 43.5q-63 0 -110.5 -45.5t-57.5 -115.5zM422 227h-344v-7q0 -91 51 -144.5t131 -53.5q85 0 144 50v-35q-53 -45 -144 -45q-92 0 -153 61t-61 167q0 92 58.5 158t144.5 66 q80 0 126.5 -51.5t46.5 -138.5v-27z" glyph-name="ecaron" unicode="ě" horiz-adv-x="466"/>
<glyph d="M356 774l109 -133h-34l-83 101l-83 -101h-34l109 133h16zM512 557v-40q-63 54 -164 54q-112 0 -188 -76.5t-76 -200.5q0 -123 79 -197t195 -74q80 0 143 28v196h33v-215q-77 -40 -176 -40q-134 0 -221 84.5t-87 217.5q0 134 85 221t213 87q97 0 164 -45z" glyph-name="Gcircumflex" unicode="Ĝ" horiz-adv-x="597"/>
<glyph d="M285 651l106 -137h-34l-81 106l-81 -106h-34l106 137h18zM386 42v359q-44 14 -91 14q-101 0 -158 -53.5t-57 -141.5q0 -91 53 -144t150 -53q57 0 103 19zM386 -1v16q-34 -21 -103 -21q-107 0 -172 58t-65 168q0 104 68.5 164t180.5 60q72 0 124 -25v-425 q0 -91 -54 -136.5t-135 -45.5q-83 0 -127 27v34q55 -31 127 -31q69 0 112.5 37t43.5 120z" glyph-name="gcircumflex" unicode="ĝ" horiz-adv-x="495"/>
<glyph d="M423 762h28q0 -55 -27.5 -86.5t-75.5 -31.5t-75.5 31.5t-27.5 86.5h28q0 -43 19.5 -67.5t55.5 -24.5t55.5 24.5t19.5 67.5zM512 557v-40q-63 54 -164 54q-112 0 -188 -76.5t-76 -200.5q0 -123 79 -197t195 -74q80 0 143 28v196h33v-215q-77 -40 -176 -40 q-134 0 -221 84.5t-87 217.5q0 134 85 221t213 87q97 0 164 -45z" glyph-name="Gbreve" unicode="Ğ" horiz-adv-x="597"/>
<glyph d="M351 630h28q0 -56 -27.5 -88t-75.5 -32t-75.5 32t-27.5 88h28q0 -43 19.5 -68.5t55.5 -25.5t55.5 25.5t19.5 68.5zM386 42v359q-44 14 -91 14q-101 0 -158 -53.5t-57 -141.5q0 -91 53 -144t150 -53q57 0 103 19zM386 -1v16q-34 -21 -103 -21q-107 0 -172 58t-65 168 q0 104 68.5 164t180.5 60q72 0 124 -25v-425q0 -91 -54 -136.5t-135 -45.5q-83 0 -127 27v34q55 -31 127 -31q69 0 112.5 37t43.5 120z" glyph-name="gbreve" unicode="ğ" horiz-adv-x="495"/>
<glyph d="M348 655q-11 0 -19 7.5t-8 19.5t8 19.5t19 7.5t19 -7.5t8 -19.5t-8 -19.5t-19 -7.5zM512 557v-40q-63 54 -164 54q-112 0 -188 -76.5t-76 -200.5q0 -123 79 -197t195 -74q80 0 143 28v196h33v-215q-77 -40 -176 -40q-134 0 -221 84.5t-87 217.5q0 134 85 221t213 87 q97 0 164 -45z" glyph-name="Gdotaccent" unicode="Ġ" horiz-adv-x="597"/>
<glyph d="M276 536q-11 0 -19 7.5t-8 19.5t8 19.5t19 7.5t19 -7.5t8 -19.5t-8 -19.5t-19 -7.5zM386 42v359q-44 14 -91 14q-101 0 -158 -53.5t-57 -141.5q0 -91 53 -144t150 -53q57 0 103 19zM386 -1v16q-34 -21 -103 -21q-107 0 -172 58t-65 168q0 104 68.5 164t180.5 60 q72 0 124 -25v-425q0 -91 -54 -136.5t-135 -45.5q-83 0 -127 27v34q55 -31 127 -31q69 0 112.5 37t43.5 120z" glyph-name="gdotaccent" unicode="ġ" horiz-adv-x="495"/>
<glyph d="M330 -46h34q0 -81 -69 -126h-26q34 28 47.5 56t13.5 70zM512 557v-40q-63 54 -164 54q-112 0 -188 -76.5t-76 -200.5q0 -123 79 -197t195 -74q80 0 143 28v196h33v-215q-77 -40 -176 -40q-134 0 -221 84.5t-87 217.5q0 134 85 221t213 87q97 0 164 -45z" glyph-name="Gcommaaccent" unicode="Ģ" horiz-adv-x="597"/>
<glyph d="M293 513h-33q0 90 75 139h26q-68 -57 -68 -139zM386 42v359q-44 14 -91 14q-101 0 -158 -53.5t-57 -141.5q0 -91 53 -144t150 -53q57 0 103 19zM386 -1v16q-34 -21 -103 -21q-107 0 -172 58t-65 168q0 104 68.5 164t180.5 60q72 0 124 -25v-425q0 -91 -54 -136.5 t-135 -45.5q-83 0 -127 27v34q55 -31 127 -31q69 0 112.5 37t43.5 120z" glyph-name="gcommaaccent" unicode="ģ" horiz-adv-x="495"/>
<glyph d="M338 774l109 -133h-34l-83 101l-83 -101h-34l109 133h16zM534 320v274h34v-594h-34v290h-407v-290h-34v594h34v-274h407z" glyph-name="Hcircumflex" unicode="Ĥ" horiz-adv-x="661"/>
<glyph d="M254 834l109 -133h-34l-83 101l-83 -101h-34l109 133h16zM80 0v680h33v-261q73 25 133 25q174 0 174 -144v-300h-33v292q0 68 -38 94.5t-103 26.5q-59 0 -133 -23v-390h-33z" glyph-name="hcircumflex" unicode="ĥ" horiz-adv-x="495"/>
<glyph d="M137 445v-125h407v125h-407zM103 445h-63v29h63v120h34v-120h407v120h34v-120h63v-29h-63v-445h-34v290h-407v-290h-34v445z" glyph-name="Hbar" unicode="Ħ" horiz-adv-x="681"/>
<glyph d="M86 534h-71v27h71v119h33v-119h141v-27h-141v-115q73 25 133 25q174 0 174 -144v-300h-33v292q0 68 -38 94.5t-103 26.5q-59 0 -133 -23v-390h-33v534z" glyph-name="hbar" unicode="ħ" horiz-adv-x="501"/>
<glyph d="M203 736h26q0 -44 -16.5 -69.5t-46.5 -25.5q-23 0 -42.5 17.5t-36 35t-31.5 17.5q-38 0 -38 -67h-26q0 44 16.5 69.5t46.5 25.5q22 0 41.5 -17.5t36.5 -35t32 -17.5q38 0 38 67zM127 594v-594h-34v594h34z" glyph-name="Itilde" unicode="Ĩ" horiz-adv-x="220"/>
<glyph d="M189 610h26q0 -44 -16.5 -69.5t-46.5 -25.5q-23 0 -42.5 17.5t-36 35t-31.5 17.5q-38 0 -38 -67h-26q0 44 16.5 69.5t46.5 25.5q22 0 41.5 -17.5t36.5 -35t32 -17.5q38 0 38 67zM113 436v-436h-33v436h33z" glyph-name="itilde" unicode="ĩ" horiz-adv-x="193"/>
<glyph d="M14 660v28h193v-28h-193zM127 594v-594h-34v594h34z" glyph-name="Imacron" unicode="Ī" horiz-adv-x="220"/>
<glyph d="M0 536v27h193v-27h-193zM113 436v-436h-33v436h33z" glyph-name="imacron" unicode="ī" horiz-adv-x="193"/>
<glyph d="M185 762h28q0 -55 -27.5 -86.5t-75.5 -31.5t-75.5 31.5t-27.5 86.5h28q0 -43 19.5 -67.5t55.5 -24.5t55.5 24.5t19.5 67.5zM127 594v-594h-34v594h34z" glyph-name="Ibreve" unicode="Ĭ" horiz-adv-x="220"/>
<glyph d="M171 630h28q0 -56 -27.5 -88t-75.5 -32t-75.5 32t-27.5 88h28q0 -43 19.5 -68.5t55.5 -25.5t55.5 25.5t19.5 68.5zM113 436v-436h-33v436h33z" glyph-name="ibreve" unicode="ĭ" horiz-adv-x="193"/>
<glyph d="M127 594v-594q-72 -69 -72 -121q0 -19 11 -29t28 -10q27 0 47 12v-27q-22 -11 -50 -11q-29 0 -47 16t-18 46q0 65 67 124v6v588h34z" glyph-name="Iogonek" unicode="Į" horiz-adv-x="220"/>
<glyph d="M80 8v428h33v-436q-73 -57 -73 -119q0 -19 11 -30t28 -11q27 0 47 12v-27q-22 -11 -50 -11t-46.5 17.5t-18.5 49.5q0 66 69 119v8zM96 536q-11 0 -19 7.5t-8 19.5t8 19.5t19 7.5t19 -7.5t8 -19.5t-8 -19.5t-19 -7.5z" glyph-name="iogonek" unicode="į" horiz-adv-x="193"/>
<glyph d="M110 655q-11 0 -19 7.5t-8 19.5t8 19.5t19 7.5t19 -7.5t8 -19.5t-8 -19.5t-19 -7.5zM127 594v-594h-34v594h34z" glyph-name="Idotaccent" unicode="İ" horiz-adv-x="220"/>
<glyph d="M113 436v-436h-33v436h33z" glyph-name="dotlessi" unicode="ı" horiz-adv-x="193"/>
<glyph d="M233 42v41q57 -60 123 -60q51 0 74 27t23 87v457h34v-462q0 -140 -131 -140q-77 0 -123 50zM127 594v-594h-34v594h34z" glyph-name="IJ" unicode="Ĳ" horiz-adv-x="563"/>
<glyph d="M289 536q-11 0 -19 7.5t-8 19.5t8 19.5t19 7.5t19 -7.5t8 -19.5t-8 -19.5t-19 -7.5zM273 -68v504h33v-502q0 -122 -106 -122q-32 0 -58 12v31q32 -14 58 -14q36 0 54.5 20t18.5 71zM96 536q-11 0 -19 7.5t-8 19.5t8 19.5t19 7.5t19 -7.5t8 -19.5t-8 -19.5t-19 -7.5z M113 436v-436h-33v436h33z" glyph-name="ij" unicode="ĳ" horiz-adv-x="386"/>
<glyph d="M260 774l109 -133h-34l-83 101l-83 -101h-34l109 133h16zM13 42v41q57 -60 123 -60q51 0 74 27t23 87v457h34v-462q0 -140 -131 -140q-77 0 -123 50z" glyph-name="Jcircumflex" unicode="Ĵ" horiz-adv-x="343"/>
<glyph d="M104 651l106 -137h-34l-81 106l-81 -106h-34l106 137h18zM80 -68v504h33v-502q0 -122 -106 -122q-32 0 -58 12v31q32 -14 58 -14q36 0 54.5 20t18.5 71z" glyph-name="jcircumflex" unicode="ĵ" horiz-adv-x="193"/>
<glyph d="M252 -46h34q0 -81 -69 -126h-26q34 28 47.5 56t13.5 70zM131 291l296 303h45l-295 -300l316 -294h-49zM93 0v594h34v-594h-34z" glyph-name="Kcommaaccent" unicode="Ķ" horiz-adv-x="498"/>
<glyph d="M220 -46h34q0 -81 -69 -126h-26q34 28 47.5 56t13.5 70zM113 680v-680h-33v680h33zM376 0l-258 236l247 200h48l-249 -200l257 -236h-45z" glyph-name="kcommaaccent" unicode="ķ" horiz-adv-x="434"/>
<glyph d="M113 436v-436h-33v436h33zM376 0l-258 236l247 200h48l-249 -200l257 -236h-45z" glyph-name="kgreenlandic" unicode="ĸ" horiz-adv-x="434"/>
<glyph d="M127 647h-32l73 131h32zM93 0v594h34v-564h265v-30h-299z" glyph-name="Lacute" unicode="Ĺ" horiz-adv-x="412"/>
<glyph d="M114 717h-32l73 131h32zM113 680v-680h-33v680h33z" glyph-name="lacute" unicode="ĺ" horiz-adv-x="193"/>
<glyph d="M224 -46h34q0 -81 -69 -126h-26q34 28 47.5 56t13.5 70zM93 0v594h34v-564h265v-30h-299z" glyph-name="Lcommaaccent" unicode="Ļ" horiz-adv-x="412"/>
<glyph d="M78 -46h34q0 -81 -69 -126h-26q34 28 47.5 56t13.5 70zM113 680v-680h-33v680h33z" glyph-name="lcommaaccent" unicode="ļ" horiz-adv-x="193"/>
<glyph d="M327 594l-40 -148h-30l40 148h30zM93 0v594h34v-564h265v-30h-299z" glyph-name="Lcaron" unicode="Ľ" horiz-adv-x="412"/>
<glyph d="M233 680l-40 -148h-30l40 148h30zM113 680v-680h-33v680h33z" glyph-name="lcaron" unicode="ľ" horiz-adv-x="193"/>
<glyph d="M342 270q-11 0 -19 7.5t-8 19.5t8 19.5t19 7.5t19 -7.5t8 -19.5t-8 -19.5t-19 -7.5zM93 0v594h34v-564h265v-30h-299z" glyph-name="Ldot" unicode="Ŀ" horiz-adv-x="412"/>
<glyph d="M219 313q-11 0 -19 7.5t-8 19.5t8 19.5t19 7.5t19 -7.5t8 -19.5t-8 -19.5t-19 -7.5zM113 680v-680h-33v680h33z" glyph-name="ldot" unicode="ŀ" horiz-adv-x="240"/>
<glyph d="M25 227v30l68 29v308h34v-294l152 65v-30l-152 -65v-240h265v-30h-299v256z" glyph-name="Lslash" unicode="Ł" horiz-adv-x="412"/>
<glyph d="M128 680v-301l80 66v-36l-80 -66v-343h-33v319l-80 -66v36l80 66v325h33z" glyph-name="lslash" unicode="ł" horiz-adv-x="223"/>
<glyph d="M337 647h-32l73 131h32zM127 594l394 -545v545h33v-594h-34l-394 545v-545h-33v594h34z" glyph-name="Nacute" unicode="Ń" horiz-adv-x="647"/>
<glyph d="M264 513h-33l85 152h33zM80 0v414q83 30 166 30q174 0 174 -144v-300h-33v292q0 68 -38 94.5t-103 26.5q-56 0 -133 -18v-395h-33z" glyph-name="nacute" unicode="ń" horiz-adv-x="495"/>
<glyph d="M305 -46h34q0 -81 -69 -126h-26q34 28 47.5 56t13.5 70zM127 594l394 -545v545h33v-594h-34l-394 545v-545h-33v594h34z" glyph-name="Ncommaaccent" unicode="Ņ" horiz-adv-x="647"/>
<glyph d="M232 -46h34q0 -81 -69 -126h-26q34 28 47.5 56t13.5 70zM80 0v414q83 30 166 30q174 0 174 -144v-300h-33v292q0 68 -38 94.5t-103 26.5q-56 0 -133 -18v-395h-33z" glyph-name="ncommaaccent" unicode="ņ" horiz-adv-x="495"/>
<glyph d="M438 778l-106 -132h-18l-106 132h34l81 -104l81 104h34zM127 594l394 -545v545h33v-594h-34l-394 545v-545h-33v594h34z" glyph-name="Ncaron" unicode="Ň" horiz-adv-x="647"/>
<glyph d="M358 640l-106 -137h-18l-106 137h35l80 -107l80 107h35zM80 0v414q83 30 166 30q174 0 174 -144v-300h-33v292q0 68 -38 94.5t-103 26.5q-56 0 -133 -18v-395h-33z" glyph-name="ncaron" unicode="ň" horiz-adv-x="495"/>
<glyph d="M554 594v-642q0 -140 -131 -140q-77 0 -123 50v41q57 -60 123 -60q51 0 74 27t23 87v43l-394 542v-542h-33v594h34l394 -542v542h33z" glyph-name="Eng" unicode="Ŋ" horiz-adv-x="647"/>
<glyph d="M387 -68v360q0 68 -38 94.5t-103 26.5q-56 0 -133 -18v-395h-33v414q83 30 166 30q174 0 174 -144v-366q0 -122 -106 -122q-32 0 -58 12v31q32 -14 58 -14q36 0 54.5 20t18.5 71z" glyph-name="eng" unicode="ŋ" horiz-adv-x="495"/>
<glyph d="M253 660v28h193v-28h-193zM614 297q0 124 -75.5 199t-189.5 75t-189.5 -75t-75.5 -199t75.5 -199t189.5 -75t189.5 75t75.5 199zM50 297q0 135 84.5 220t214.5 85t214.5 -85t84.5 -220t-84.5 -220t-214.5 -85t-214.5 85t-84.5 220z" glyph-name="Omacron" unicode="Ō" horiz-adv-x="698"/>
<glyph d="M162 536v27h193v-27h-193zM436 218q0 88 -49.5 142.5t-128.5 54.5t-128.5 -54.5t-49.5 -142.5t49.5 -142.5t128.5 -54.5t128.5 54.5t49.5 142.5zM46 218q0 100 59.5 163t152.5 63t152.5 -63t59.5 -163t-59.5 -163t-152.5 -63t-152.5 63t-59.5 163z" glyph-name="omacron" unicode="ō" horiz-adv-x="516"/>
<glyph d="M424 762h28q0 -55 -27.5 -86.5t-75.5 -31.5t-75.5 31.5t-27.5 86.5h28q0 -43 19.5 -67.5t55.5 -24.5t55.5 24.5t19.5 67.5zM614 297q0 124 -75.5 199t-189.5 75t-189.5 -75t-75.5 -199t75.5 -199t189.5 -75t189.5 75t75.5 199zM50 297q0 135 84.5 220t214.5 85t214.5 -85 t84.5 -220t-84.5 -220t-214.5 -85t-214.5 85t-84.5 220z" glyph-name="Obreve" unicode="Ŏ" horiz-adv-x="698"/>
<glyph d="M333 630h28q0 -56 -27.5 -88t-75.5 -32t-75.5 32t-27.5 88h28q0 -43 19.5 -68.5t55.5 -25.5t55.5 25.5t19.5 68.5zM436 218q0 88 -49.5 142.5t-128.5 54.5t-128.5 -54.5t-49.5 -142.5t49.5 -142.5t128.5 -54.5t128.5 54.5t49.5 142.5zM46 218q0 100 59.5 163t152.5 63 t152.5 -63t59.5 -163t-59.5 -163t-152.5 -63t-152.5 63t-59.5 163z" glyph-name="obreve" unicode="ŏ" horiz-adv-x="516"/>
<glyph d="M411 647h-31l73 131h31zM308 647h-31l73 131h31zM614 297q0 124 -75.5 199t-189.5 75t-189.5 -75t-75.5 -199t75.5 -199t189.5 -75t189.5 75t75.5 199zM50 297q0 135 84.5 220t214.5 85t214.5 -85t84.5 -220t-84.5 -220t-214.5 -85t-214.5 85t-84.5 220z" glyph-name="Ohungarumlaut" unicode="Ő" horiz-adv-x="698"/>
<glyph d="M329 513h-31l85 152h31zM226 513h-31l85 152h31zM436 218q0 88 -49.5 142.5t-128.5 54.5t-128.5 -54.5t-49.5 -142.5t49.5 -142.5t128.5 -54.5t128.5 54.5t49.5 142.5zM46 218q0 100 59.5 163t152.5 63t152.5 -63t59.5 -163t-59.5 -163t-152.5 -63t-152.5 63t-59.5 163z " glyph-name="ohungarumlaut" unicode="ő" horiz-adv-x="516"/>
<glyph d="M429 30v534h-71q-116 0 -195 -72t-79 -195t79 -195t195 -72h71zM749 594v-30h-286v-244h269v-30h-269v-260h289v-30h-394q-131 0 -219.5 81.5t-88.5 215.5t88.5 215.5t219.5 81.5h391z" glyph-name="OE" unicode="Œ" horiz-adv-x="804"/>
<glyph d="M469 254h308q0 75 -37.5 118t-102.5 43q-63 0 -109.5 -45t-58.5 -116zM436 218q0 89 -49.5 143t-128.5 54t-128.5 -54t-49.5 -143t49.5 -143t128.5 -54t128.5 54t49.5 143zM792 73v-35q-53 -46 -144 -46q-67 0 -119.5 33t-76.5 94q-24 -60 -75 -93.5t-119 -33.5 q-94 0 -153 62.5t-59 163.5t59 163.5t153 62.5q68 0 119.5 -34t75.5 -94q24 58 73 93t111 35q80 0 126.5 -51t46.5 -139v-27h-344v-7q0 -92 50.5 -145t131.5 -53q83 0 144 51z" glyph-name="oe" unicode="œ" horiz-adv-x="854"/>
<glyph d="M249 647h-32l73 131h32zM127 569v-297h71q79 0 124.5 39.5t45.5 113.5q0 72 -49 110t-138 38q-26 0 -54 -4zM127 243v-243h-34v593q41 9 88 9q107 0 165 -45t58 -132q0 -72 -40 -117t-103 -58l217 -250h-44l-209 243h-98z" glyph-name="Racute" unicode="Ŕ" horiz-adv-x="488"/>
<glyph d="M207 513h-33l85 152h33zM113 380v-380h-33v395q67 46 148 46q29 0 63 -8v-33q-31 9 -63 9q-70 0 -115 -29z" glyph-name="racute" unicode="ŕ" horiz-adv-x="301"/>
<glyph d="M227 -46h34q0 -81 -69 -126h-26q34 28 47.5 56t13.5 70zM127 569v-297h71q79 0 124.5 39.5t45.5 113.5q0 72 -49 110t-138 38q-26 0 -54 -4zM127 243v-243h-34v593q41 9 88 9q107 0 165 -45t58 -132q0 -72 -40 -117t-103 -58l217 -250h-44l-209 243h-98z" glyph-name="Rcommaaccent" unicode="Ŗ" horiz-adv-x="488"/>
<glyph d="M80 -46h34q0 -81 -69 -126h-26q34 28 47.5 56t13.5 70zM113 380v-380h-33v395q67 46 148 46q29 0 63 -8v-33q-31 9 -63 9q-70 0 -115 -29z" glyph-name="rcommaaccent" unicode="ŗ" horiz-adv-x="301"/>
<glyph d="M350 778l-106 -132h-18l-106 132h34l81 -104l81 104h34zM127 569v-297h71q79 0 124.5 39.5t45.5 113.5q0 72 -49 110t-138 38q-26 0 -54 -4zM127 243v-243h-34v593q41 9 88 9q107 0 165 -45t58 -132q0 -72 -40 -117t-103 -58l217 -250h-44l-209 243h-98z" glyph-name="Rcaron" unicode="Ř" horiz-adv-x="488"/>
<glyph d="M308 640l-106 -137h-18l-106 137h35l80 -107l80 107h35zM113 380v-380h-33v395q67 46 148 46q29 0 63 -8v-33q-31 9 -63 9q-70 0 -115 -29z" glyph-name="rcaron" unicode="ř" horiz-adv-x="301"/>
<glyph d="M223 647h-32l73 131h32zM42 41v40q67 -59 154 -59q63 0 103.5 32t40.5 94q0 57 -33 86.5t-107 58.5q-82 32 -119.5 65.5t-37.5 100.5t47.5 105t115.5 38q86 0 137 -45v-38q-62 53 -137 53q-56 0 -93 -30t-37 -83q0 -49 29.5 -78.5t103.5 -56.5q43 -16 69 -29t50 -33.5 t34.5 -48t10.5 -65.5q0 -74 -50.5 -115t-126.5 -41q-95 0 -154 49z" glyph-name="Sacute" unicode="Ś" horiz-adv-x="422"/>
<glyph d="M192 513h-33l85 152h33zM43 36v38q55 -53 122 -53q49 0 76.5 22.5t27.5 65.5q0 41 -25.5 62.5t-83.5 41.5q-59 21 -87 48t-28 73q0 50 34.5 80t89.5 30q63 0 110 -35v-38q-51 44 -110 44q-43 0 -67.5 -21.5t-24.5 -59.5q0 -35 22 -54.5t76 -39.5q33 -12 51 -20.5 t38 -23.5t28.5 -36t8.5 -51q0 -57 -39 -87t-97 -30q-37 0 -70.5 12.5t-51.5 31.5z" glyph-name="sacute" unicode="ś" horiz-adv-x="348"/>
<glyph d="M217 774l109 -133h-34l-83 101l-83 -101h-34l109 133h16zM42 41v40q67 -59 154 -59q63 0 103.5 32t40.5 94q0 57 -33 86.5t-107 58.5q-82 32 -119.5 65.5t-37.5 100.5t47.5 105t115.5 38q86 0 137 -45v-38q-62 53 -137 53q-56 0 -93 -30t-37 -83q0 -49 29.5 -78.5 t103.5 -56.5q43 -16 69 -29t50 -33.5t34.5 -48t10.5 -65.5q0 -74 -50.5 -115t-126.5 -41q-95 0 -154 49z" glyph-name="Scircumflex" unicode="Ŝ" horiz-adv-x="422"/>
<glyph d="M187 651l106 -137h-34l-81 106l-81 -106h-34l106 137h18zM43 36v38q55 -53 122 -53q49 0 76.5 22.5t27.5 65.5q0 41 -25.5 62.5t-83.5 41.5q-59 21 -87 48t-28 73q0 50 34.5 80t89.5 30q63 0 110 -35v-38q-51 44 -110 44q-43 0 -67.5 -21.5t-24.5 -59.5q0 -35 22 -54.5 t76 -39.5q33 -12 51 -20.5t38 -23.5t28.5 -36t8.5 -51q0 -57 -39 -87t-97 -30q-37 0 -70.5 12.5t-51.5 31.5z" glyph-name="scircumflex" unicode="ŝ" horiz-adv-x="348"/>
<glyph d="M152 -147h-35q68 58 74 139q-91 1 -149 49v40q67 -59 154 -59q63 0 103.5 32t40.5 94q0 57 -33 86.5t-107 58.5q-82 32 -119.5 65.5t-37.5 100.5t47.5 105t115.5 38q86 0 137 -45v-38q-62 53 -137 53q-56 0 -93 -30t-37 -83q0 -49 29.5 -78.5t103.5 -56.5q43 -16 69 -29 t50 -33.5t34.5 -48t10.5 -65.5q0 -68 -42.5 -108t-109.5 -47q-3 -42 -22 -80t-47 -60z" glyph-name="Scedilla" unicode="Ş" horiz-adv-x="422"/>
<glyph d="M121 -147h-35q68 58 74 139q-76 2 -117 44v38q55 -53 122 -53q49 0 76.5 22.5t27.5 65.5q0 41 -25.5 62.5t-83.5 41.5q-59 21 -87 48t-28 73q0 50 34.5 80t89.5 30q63 0 110 -35v-38q-51 44 -110 44q-43 0 -67.5 -21.5t-24.5 -59.5q0 -35 22 -54.5t76 -39.5 q33 -12 51 -20.5t38 -23.5t28.5 -36t8.5 -51q0 -50 -31 -79.5t-80 -35.5q-3 -42 -22 -80t-47 -61z" glyph-name="scedilla" unicode="ş" horiz-adv-x="348"/>
<glyph d="M324 778l-106 -132h-18l-106 132h34l81 -104l81 104h34zM42 41v40q67 -59 154 -59q63 0 103.5 32t40.5 94q0 57 -33 86.5t-107 58.5q-82 32 -119.5 65.5t-37.5 100.5t47.5 105t115.5 38q86 0 137 -45v-38q-62 53 -137 53q-56 0 -93 -30t-37 -83q0 -49 29.5 -78.5 t103.5 -56.5q43 -16 69 -29t50 -33.5t34.5 -48t10.5 -65.5q0 -74 -50.5 -115t-126.5 -41q-95 0 -154 49z" glyph-name="Scaron" unicode="Š" horiz-adv-x="422"/>
<glyph d="M293 640l-106 -137h-18l-106 137h35l80 -107l80 107h35zM43 36v38q55 -53 122 -53q49 0 76.5 22.5t27.5 65.5q0 41 -25.5 62.5t-83.5 41.5q-59 21 -87 48t-28 73q0 50 34.5 80t89.5 30q63 0 110 -35v-38q-51 44 -110 44q-43 0 -67.5 -21.5t-24.5 -59.5q0 -35 22 -54.5 t76 -39.5q33 -12 51 -20.5t38 -23.5t28.5 -36t8.5 -51q0 -57 -39 -87t-97 -30q-37 0 -70.5 12.5t-51.5 31.5z" glyph-name="scaron" unicode="š" horiz-adv-x="348"/>
<glyph d="M217 -46h34q0 -81 -69 -126h-26q34 28 47.5 56t13.5 70zM252 564v-564h-34v564h-203v30h440v-30h-203z" glyph-name="Tcommaaccent" unicode="Ţ" horiz-adv-x="470"/>
<glyph d="M159 -46h34q0 -81 -69 -126h-26q34 28 47.5 56t13.5 70zM21 408v28h67v100h33v-100h135v-28h-135v-302q0 -83 67 -83q37 0 78 24v-32q-35 -21 -78 -21q-100 0 -100 106v308h-67z" glyph-name="tcommaaccent" unicode="ţ" horiz-adv-x="296"/>
<glyph d="M350 778l-106 -132h-18l-106 132h34l81 -104l81 104h34zM252 564v-564h-34v564h-203v30h440v-30h-203z" glyph-name="Tcaron" unicode="Ť" horiz-adv-x="470"/>
<glyph d="M222 640h30l-40 -148h-30zM21 408v28h67v100h33v-100h135v-28h-135v-302q0 -83 67 -83q37 0 78 24v-32q-35 -21 -78 -21q-100 0 -100 106v308h-67z" glyph-name="tcaron" unicode="ť" horiz-adv-x="296"/>
<glyph d="M218 290h-108v30h108v244h-203v30h440v-30h-203v-244h109v-30h-109v-290h-34v290z" glyph-name="Tbar" unicode="Ŧ" horiz-adv-x="470"/>
<glyph d="M88 264v144h-67v28h67v100h33v-100h135v-28h-135v-144h135v-27h-135v-131q0 -83 67 -83q37 0 78 24v-32q-35 -21 -78 -21q-100 0 -100 106v137h-67v27h67z" glyph-name="tbar" unicode="ŧ" horiz-adv-x="296"/>
<glyph d="M380 736h26q0 -44 -16.5 -69.5t-46.5 -25.5q-29 0 -61 35t-49 35q-38 0 -38 -67h-26q0 44 16.5 69.5t46.5 25.5q22 0 41.5 -17.5t36.5 -35t32 -17.5q38 0 38 67zM76 194v400h34v-404q0 -167 210 -167q79 0 145 15v556h34v-579q-90 -23 -179 -23q-244 0 -244 202z" glyph-name="Utilde" unicode="Ũ" horiz-adv-x="592"/>
<glyph d="M332 610h26q0 -44 -16.5 -69.5t-46.5 -25.5q-29 0 -61 35t-49 35q-38 0 -38 -67h-26q0 44 16.5 69.5t46.5 25.5q22 0 41.5 -17.5t36.5 -35t32 -17.5q38 0 38 67zM403 436v-428q-77 -16 -135 -16q-196 0 -196 145v299h33v-297q0 -117 163 -117q47 0 102 10v404h33z" glyph-name="utilde" unicode="ũ" horiz-adv-x="482"/>
<glyph d="M191 660v28h193v-28h-193zM76 194v400h34v-404q0 -167 210 -167q79 0 145 15v556h34v-579q-90 -23 -179 -23q-244 0 -244 202z" glyph-name="Umacron" unicode="Ū" horiz-adv-x="592"/>
<glyph d="M143 536v27h193v-27h-193zM403 436v-428q-77 -16 -135 -16q-196 0 -196 145v299h33v-297q0 -117 163 -117q47 0 102 10v404h33z" glyph-name="umacron" unicode="ū" horiz-adv-x="482"/>
<glyph d="M362 762h28q0 -55 -27.5 -86.5t-75.5 -31.5t-75.5 31.5t-27.5 86.5h28q0 -43 19.5 -67.5t55.5 -24.5t55.5 24.5t19.5 67.5zM76 194v400h34v-404q0 -167 210 -167q79 0 145 15v556h34v-579q-90 -23 -179 -23q-244 0 -244 202z" glyph-name="Ubreve" unicode="Ŭ" horiz-adv-x="592"/>
<glyph d="M314 630h28q0 -56 -27.5 -88t-75.5 -32t-75.5 32t-27.5 88h28q0 -43 19.5 -68.5t55.5 -25.5t55.5 25.5t19.5 68.5zM403 436v-428q-77 -16 -135 -16q-196 0 -196 145v299h33v-297q0 -117 163 -117q47 0 102 10v404h33z" glyph-name="ubreve" unicode="ŭ" horiz-adv-x="482"/>
<glyph d="M338 702q0 23 -13.5 37t-37.5 14t-37.5 -14t-13.5 -37q0 -22 14 -36.5t37 -14.5q24 0 37.5 14.5t13.5 36.5zM210 702q0 32 22.5 53.5t54.5 21.5t54.5 -21.5t22.5 -53.5t-22.5 -53.5t-54.5 -21.5t-54.5 21.5t-22.5 53.5zM76 194v400h34v-404q0 -167 210 -167q79 0 145 15 v556h34v-579q-90 -23 -179 -23q-244 0 -244 202z" glyph-name="Uring" unicode="Ů" horiz-adv-x="592"/>
<glyph d="M290 582q0 23 -13.5 37t-37.5 14t-37.5 -14t-13.5 -37q0 -22 14 -36.5t37 -14.5q24 0 37.5 14.5t13.5 36.5zM162 582q0 32 22.5 53.5t54.5 21.5t54.5 -21.5t22.5 -53.5t-22.5 -53.5t-54.5 -21.5t-54.5 21.5t-22.5 53.5zM403 436v-428q-77 -16 -135 -16q-196 0 -196 145 v299h33v-297q0 -117 163 -117q47 0 102 10v404h33z" glyph-name="uring" unicode="ů" horiz-adv-x="482"/>
<glyph d="M346 647h-31l73 131h31zM243 647h-31l73 131h31zM76 194v400h34v-404q0 -167 210 -167q79 0 145 15v556h34v-579q-90 -23 -179 -23q-244 0 -244 202z" glyph-name="Uhungarumlaut" unicode="Ű" horiz-adv-x="592"/>
<glyph d="M300 513h-31l85 152h31zM197 513h-31l85 152h31zM403 436v-428q-77 -16 -135 -16q-196 0 -196 145v299h33v-297q0 -117 163 -117q47 0 102 10v404h33z" glyph-name="uhungarumlaut" unicode="ű" horiz-adv-x="482"/>
<glyph d="M76 194v400h34v-404q0 -167 210 -167q79 0 145 15v556h34v-579q-94 -81 -94 -136q0 -19 11 -29t28 -10q27 0 47 12v-27q-22 -11 -50 -11q-29 0 -47 16t-18 46t21.5 65t59.5 64q-71 -13 -137 -13q-244 0 -244 202z" glyph-name="Uogonek" unicode="Ų" horiz-adv-x="592"/>
<glyph d="M403 -148v-27q-22 -11 -50 -11q-29 0 -47 16t-18 46q0 62 77 124q-54 -8 -97 -8q-196 0 -196 145v299h33v-297q0 -117 163 -117q47 0 102 10v404h33v-428q-86 -78 -86 -129q0 -19 11 -29t28 -10q27 0 47 12z" glyph-name="uogonek" unicode="ų" horiz-adv-x="482"/>
<glyph d="M383 774l109 -133h-34l-83 101l-83 -101h-34l109 133h16zM355 594h41l151 -563l156 563h33l-166 -594h-45l-150 555l-150 -555h-45l-166 594h34l156 -563z" glyph-name="Wcircumflex" unicode="Ŵ" horiz-adv-x="750"/>
<glyph d="M312 651l106 -137h-34l-81 106l-81 -106h-34l106 137h18zM320 436l117 -404l130 404h32l-142 -436h-41l-113 394l-113 -394h-41l-142 436h33l130 -404l116 404h34z" glyph-name="wcircumflex" unicode="ŵ" horiz-adv-x="606"/>
<glyph d="M256 774l109 -133h-34l-83 101l-83 -101h-34l109 133h16zM249 277l197 317h37l-218 -350v-244h-34v244l-217 350h38z" glyph-name="Ycircumflex" unicode="Ŷ" horiz-adv-x="497"/>
<glyph d="M223 651l106 -137h-34l-81 106l-81 -106h-34l106 137h18zM42 436l171 -421l160 421h33l-236 -616h-33l59 153l-189 463h35z" glyph-name="ycircumflex" unicode="ŷ" horiz-adv-x="413"/>
<glyph d="M322 655q-11 0 -19 7.5t-8 19.5t8 19.5t19 7.5t19 -7.5t8 -19.5t-8 -19.5t-19 -7.5zM174 655q-11 0 -19 7.5t-8 19.5t8 19.5t19 7.5t19 -7.5t8 -19.5t-8 -19.5t-19 -7.5zM249 277l197 317h37l-218 -350v-244h-34v244l-217 350h38z" glyph-name="Ydieresis" unicode="Ÿ" horiz-adv-x="497"/>
<glyph d="M266 647h-32l73 131h32zM49 564v30h391v-26l-377 -538h383v-30h-423v27l376 537h-350z" glyph-name="Zacute" unicode="Ź" horiz-adv-x="469"/>
<glyph d="M230 513h-33l85 152h33zM363 28v-28h-326v30l282 378h-266v28h305v-28l-286 -380h291z" glyph-name="zacute" unicode="ź" horiz-adv-x="399"/>
<glyph d="M252 655q-11 0 -19 7.5t-8 19.5t8 19.5t19 7.5t19 -7.5t8 -19.5t-8 -19.5t-19 -7.5zM49 564v30h391v-26l-377 -538h383v-30h-423v27l376 537h-350z" glyph-name="Zdotaccent" unicode="Ż" horiz-adv-x="469"/>
<glyph d="M216 536q-11 0 -19 7.5t-8 19.5t8 19.5t19 7.5t19 -7.5t8 -19.5t-8 -19.5t-19 -7.5zM363 28v-28h-326v30l282 378h-266v28h305v-28l-286 -380h291z" glyph-name="zdotaccent" unicode="ż" horiz-adv-x="399"/>
<glyph d="M367 778l-106 -132h-18l-106 132h34l81 -104l81 104h34zM49 564v30h391v-26l-377 -538h383v-30h-423v27l376 537h-350z" glyph-name="Zcaron" unicode="Ž" horiz-adv-x="469"/>
<glyph d="M331 640l-106 -137h-18l-106 137h35l80 -107l80 107h35zM363 28v-28h-326v30l282 378h-266v28h305v-28l-286 -380h291z" glyph-name="zcaron" unicode="ž" horiz-adv-x="399"/>
<glyph d="M95 284h-70v28h74l22 142q11 72 38 110t82 38q37 0 65 -22v-32q-30 25 -65 25q-40 0 -59.5 -30t-28.5 -90l-22 -141h111v-28h-115l-63 -406h-31z" glyph-name="florin" unicode="ƒ" horiz-adv-x="331"/>
<glyph d="M284 740h-31l38 68h31zM214 639q0 -19 14 -31.5t38 -12.5t38 12.5t14 31.5t-14 31.5t-38 12.5t-38 -12.5t-14 -31.5zM405 210l-139 353l-136 -353h275zM14 0l226 576q-23 7 -37.5 24t-14.5 39q0 28 23 48t55 20t55 -20t23 -48q0 -22 -13.5 -38.5t-35.5 -23.5l228 -577 h-35l-71 180h-299l-69 -180h-35z" glyph-name="Aringacute" unicode="Ǻ" horiz-adv-x="537"/>
<glyph d="M310 28v192h-50q-185 0 -185 -100q0 -50 45.5 -75t118.5 -25q39 0 71 8zM310 249v65q0 48 -25.5 74t-73.5 26q-66 0 -124 -33v31q52 32 125 32q131 0 131 -126v-311q-52 -15 -104 -15q-93 0 -145 32.5t-52 95.5q0 129 217 129h51zM162 543q0 -19 14 -31.5t38 -12.5 t38 12.5t14 31.5t-14 31.5t-38 12.5t-38 -12.5t-14 -31.5zM136 543q0 28 23 48t55 20t55 -20t23 -48t-23 -48t-55 -20t-55 20t-23 48zM232 649h-31l38 69h31z" glyph-name="aringacute" unicode="ǻ" horiz-adv-x="415"/>
<glyph d="M583 647h-32l73 131h32zM192 210h241v357zM172 180l-122 -180h-36l402 594h337v-30h-286v-244h269v-30h-269v-260h289v-30h-323v180h-261z" glyph-name="AEacute" unicode="Ǽ" horiz-adv-x="808"/>
<glyph d="M387 513h-33l85 152h33zM349 243h312q-2 78 -38 125t-109 47q-69 0 -113.5 -47t-51.5 -125zM317 217h-60q-182 0 -182 -104q0 -45 32.5 -69t81.5 -24q48 0 87.5 23t63.5 65q-21 47 -23 109zM693 217h-345q1 -89 52 -142.5t129 -53.5q84 0 145 48v-32q-55 -45 -145 -45 q-116 0 -174 89q-62 -89 -166 -89q-65 0 -106 31.5t-41 89.5q0 66 57 98t156 32h63q3 31 10 54q-3 118 -116 118q-60 0 -128 -34v31q59 32 128 32q117 0 138 -96q26 45 69 70.5t96 25.5q87 0 132.5 -57t45.5 -148v-22z" glyph-name="aeacute" unicode="ǽ" horiz-adv-x="737"/>
<glyph d="M363 647h-32l73 131h32zM146 109l386 396q-72 66 -183 66q-114 0 -189.5 -75t-75.5 -199q0 -115 62 -188zM551 485l-386 -396q72 -66 184 -66q114 0 189.5 75t75.5 199q0 116 -63 188zM658 594l-85 -87q75 -85 75 -210q0 -135 -84.5 -220t-214.5 -85q-122 0 -205 75 l-65 -67h-39l85 87q-75 85 -75 210q0 135 84.5 220t214.5 85q120 0 204 -76l66 68h39z" glyph-name="Oslashacute" unicode="Ǿ" horiz-adv-x="698"/>
<glyph d="M272 513h-33l85 152h33zM398 349l-263 -282q48 -46 123 -46q79 0 128.5 54.5t49.5 142.5q0 81 -38 131zM118 87l263 282q-48 46 -123 46q-79 0 -128.5 -54.5t-49.5 -142.5q0 -81 38 -131zM480 436l-60 -64q50 -61 50 -154q0 -100 -59.5 -163t-152.5 -63q-87 0 -143 53 l-43 -45h-36l60 64q-50 61 -50 154q0 100 59.5 163t152.5 63q87 0 143 -53l43 45h36z" glyph-name="oslashacute" unicode="ǿ" horiz-adv-x="516"/>
<glyph d="M191 -46h34q0 -81 -69 -126h-26q34 28 47.5 56t13.5 70zM42 41v40q67 -59 154 -59q63 0 103.5 32t40.5 94q0 57 -33 86.5t-107 58.5q-82 32 -119.5 65.5t-37.5 100.5t47.5 105t115.5 38q86 0 137 -45v-38q-62 53 -137 53q-56 0 -93 -30t-37 -83q0 -49 29.5 -78.5 t103.5 -56.5q43 -16 69 -29t50 -33.5t34.5 -48t10.5 -65.5q0 -74 -50.5 -115t-126.5 -41q-95 0 -154 49z" glyph-name="Scommaaccent" unicode="Ș" horiz-adv-x="422"/>
<glyph d="M160 -46h34q0 -81 -69 -126h-26q34 28 47.5 56t13.5 70zM43 36v38q55 -53 122 -53q49 0 76.5 22.5t27.5 65.5q0 41 -25.5 62.5t-83.5 41.5q-59 21 -87 48t-28 73q0 50 34.5 80t89.5 30q63 0 110 -35v-38q-51 44 -110 44q-43 0 -67.5 -21.5t-24.5 -59.5q0 -35 22 -54.5 t76 -39.5q33 -12 51 -20.5t38 -23.5t28.5 -36t8.5 -51q0 -57 -39 -87t-97 -30q-37 0 -70.5 12.5t-51.5 31.5z" glyph-name="scommaaccent" unicode="ș" horiz-adv-x="348"/>
<glyph d="M217 -46h34q0 -81 -69 -126h-26q34 28 47.5 56t13.5 70zM252 564v-564h-34v564h-203v30h440v-30h-203z" glyph-name="uni021A" unicode="Ț" horiz-adv-x="470"/>
<glyph d="M159 -46h34q0 -81 -69 -126h-26q34 28 47.5 56t13.5 70zM21 408v28h67v100h33v-100h135v-28h-135v-302q0 -83 67 -83q37 0 78 24v-32q-35 -21 -78 -21q-100 0 -100 106v308h-67z" glyph-name="uni021B" unicode="ț" horiz-adv-x="296"/>
<glyph d="M80 -68v504h33v-502q0 -122 -106 -122q-32 0 -58 12v31q32 -14 58 -14q36 0 54.5 20t18.5 71z" glyph-name="uni0237" unicode="ȷ" horiz-adv-x="193"/>
<glyph d="M259 651l106 -137h-34l-81 106l-81 -106h-34l106 137h18z" glyph-name="circumflex" unicode="ˆ" horiz-adv-x="500"/>
<glyph d="M365 640l-106 -137h-18l-106 137h35l80 -107l80 107h35z" glyph-name="caron" unicode="ˇ" horiz-adv-x="500"/>
<glyph d="M153 536v27h193v-27h-193z" glyph-name="uni02C9" unicode="ˉ" horiz-adv-x="500"/>
<glyph d="M325 630h28q0 -56 -27.5 -88t-75.5 -32t-75.5 32t-27.5 88h28q0 -43 19.5 -68.5t55.5 -25.5t55.5 25.5t19.5 68.5z" glyph-name="breve" unicode="˘" horiz-adv-x="500"/>
<glyph d="M250 536q-11 0 -19 7.5t-8 19.5t8 19.5t19 7.5t19 -7.5t8 -19.5t-8 -19.5t-19 -7.5z" glyph-name="dotaccent" unicode="˙" horiz-adv-x="500"/>
<glyph d="M301 582q0 23 -13.5 37t-37.5 14t-37.5 -14t-13.5 -37q0 -22 14 -36.5t37 -14.5q24 0 37.5 14.5t13.5 36.5zM173 582q0 32 22.5 53.5t54.5 21.5t54.5 -21.5t22.5 -53.5t-22.5 -53.5t-54.5 -21.5t-54.5 21.5t-22.5 53.5z" glyph-name="ring" unicode="˚" horiz-adv-x="500"/>
<glyph d="M268 8h29q-80 -73 -80 -129q0 -19 11 -29t28 -10q27 0 47 12v-27q-22 -11 -50 -11q-29 0 -47 16t-18 46q0 67 80 132z" glyph-name="ogonek" unicode="˛" horiz-adv-x="500"/>
<glyph d="M342 610h26q0 -44 -16.5 -69.5t-46.5 -25.5q-29 0 -61 35t-49 35q-38 0 -38 -67h-26q0 44 16.5 69.5t46.5 25.5q22 0 41.5 -17.5t36.5 -35t32 -17.5q38 0 38 67z" glyph-name="tilde" unicode="˜" horiz-adv-x="500"/>
<glyph d="M274 513h-31l85 152h31zM171 513h-31l85 152h31z" glyph-name="hungarumlaut" unicode="˝" horiz-adv-x="500"/>
<glyph d="M70 261q0 12 8 20t20 8t20 -8t8 -20t-8 -20t-20 -8t-20 8t-8 20z" glyph-name="anoteleia" unicode="·" horiz-adv-x="196"/>
<glyph d="M472 31v-27q-20 -11 -48 -11q-84 0 -84 102v313h-195v-408h-31v408h-79v28h425v-28h-89v-314q0 -74 59 -74q24 0 42 11z" glyph-name="pi" unicode="π" horiz-adv-x="507"/>
<glyph d="M392 647h-32l-73 131h32zM355 594h41l151 -563l156 563h33l-166 -594h-45l-150 555l-150 -555h-45l-166 594h34l156 -563z" glyph-name="Wgrave" unicode="Ẁ" horiz-adv-x="750"/>
<glyph d="M314 513h-33l-85 152h33zM320 436l117 -404l130 404h32l-142 -436h-41l-113 394l-113 -394h-41l-142 436h33l130 -404l116 404h34z" glyph-name="wgrave" unicode="ẁ" horiz-adv-x="606"/>
<glyph d="M389 647h-32l73 131h32zM355 594h41l151 -563l156 563h33l-166 -594h-45l-150 555l-150 -555h-45l-166 594h34l156 -563z" glyph-name="Wacute" unicode="Ẃ" horiz-adv-x="750"/>
<glyph d="M325 513h-33l85 152h33zM320 436l117 -404l130 404h32l-142 -436h-41l-113 394l-113 -394h-41l-142 436h33l130 -404l116 404h34z" glyph-name="wacute" unicode="ẃ" horiz-adv-x="606"/>
<glyph d="M449 655q-11 0 -19 7.5t-8 19.5t8 19.5t19 7.5t19 -7.5t8 -19.5t-8 -19.5t-19 -7.5zM301 655q-11 0 -19 7.5t-8 19.5t8 19.5t19 7.5t19 -7.5t8 -19.5t-8 -19.5t-19 -7.5zM355 594h41l151 -563l156 563h33l-166 -594h-45l-150 555l-150 -555h-45l-166 594h34l156 -563z " glyph-name="Wdieresis" unicode="Ẅ" horiz-adv-x="750"/>
<glyph d="M377 536q-11 0 -19 7.5t-8 19.5t8 19.5t19 7.5t19 -7.5t8 -19.5t-8 -19.5t-19 -7.5zM229 536q-11 0 -19 7.5t-8 19.5t8 19.5t19 7.5t19 -7.5t8 -19.5t-8 -19.5t-19 -7.5zM320 436l117 -404l130 404h32l-142 -436h-41l-113 394l-113 -394h-41l-142 436h33l130 -404 l116 404h34z" glyph-name="wdieresis" unicode="ẅ" horiz-adv-x="606"/>
<glyph d="M265 647h-32l-73 131h32zM249 277l197 317h37l-218 -350v-244h-34v244l-217 350h38z" glyph-name="Ygrave" unicode="Ỳ" horiz-adv-x="497"/>
<glyph d="M233 513h-33l-85 152h33zM42 436l171 -421l160 421h33l-236 -616h-33l59 153l-189 463h35z" glyph-name="ygrave" unicode="ỳ" horiz-adv-x="413"/>
<glyph d="M64 247v29h227v-29h-227z" glyph-name="uni2011" unicode="‑" horiz-adv-x="355"/>
<glyph d="M64 248v28h444v-28h-444z" glyph-name="figuredash" unicode="‒" horiz-adv-x="572"/>
<glyph d="M64 248v28h444v-28h-444z" glyph-name="endash" unicode="–" horiz-adv-x="572"/>
<glyph d="M64 248v28h824v-28h-824z" glyph-name="emdash" unicode="—" horiz-adv-x="952"/>
<glyph d="M64 248v28h824v-28h-824z" glyph-name="uni2015" unicode="―" horiz-adv-x="952"/>
<glyph d="M104 474h-34q0 56 26.5 102t67.5 68h28q-88 -72 -88 -170z" glyph-name="quoteleft" unicode="‘" horiz-adv-x="194"/>
<glyph d="M115 644h34q0 -56 -26.5 -102t-67.5 -68h-28q88 72 88 170z" glyph-name="quoteright" unicode="’" horiz-adv-x="194"/>
<glyph d="M85 65h34q0 -56 -26.5 -102t-67.5 -68h-28q88 72 88 170z" glyph-name="quotesinglbase" unicode="‚" horiz-adv-x="194"/>
<glyph d="M209 474h-34q0 56 26.5 102t67.5 68h28q-88 -72 -88 -170zM104 474h-34q0 56 26.5 102t67.5 68h28q-88 -72 -88 -170z" glyph-name="quotedblleft" unicode="“" horiz-adv-x="299"/>
<glyph d="M220 644h34q0 -56 -26.5 -102t-67.5 -68h-28q88 72 88 170zM115 644h34q0 -56 -26.5 -102t-67.5 -68h-28q88 72 88 170z" glyph-name="quotedblright" unicode="”" horiz-adv-x="299"/>
<glyph d="M190 45h34q0 -56 -26.5 -102t-67.5 -68h-28q88 72 88 170zM85 45h34q0 -56 -26.5 -102t-67.5 -68h-28q88 72 88 170z" glyph-name="quotedblbase" unicode="„" horiz-adv-x="299"/>
<glyph d="M134 477v-199h-28v199h-86v29h86v88h28v-88h86v-29h-86z" glyph-name="dagger" unicode="†" horiz-adv-x="240"/>
<glyph d="M134 367v-89h-28v89h-86v28h86v82h-86v29h86v88h28v-88h86v-29h-86v-82h86v-28h-86z" glyph-name="daggerdbl" unicode="‡" horiz-adv-x="240"/>
<glyph d="M70 262q0 31 21.5 52t52.5 21t52 -21t21 -52t-21 -52.5t-52 -21.5t-52.5 21.5t-21.5 52.5z" glyph-name="bullet" unicode="•" horiz-adv-x="287"/>
<glyph d="M518 26q0 -12 -8 -20t-20 -8t-20 8t-8 20t8 20t20 8t20 -8t8 -20zM322 26q0 -12 -8 -20t-20 -8t-20 8t-8 20t8 20t20 8t20 -8t8 -20zM126 26q0 -12 -8 -20t-20 -8t-20 8t-8 20t8 20t20 8t20 -8t8 -20z" glyph-name="ellipsis" unicode="…" horiz-adv-x="588"/>
<glyph d="M507 595l-362 -595h-33l362 595h33zM848 120q0 45 -28 72.5t-70 27.5q-41 0 -69 -27.5t-28 -72.5q0 -44 28 -71.5t69 -27.5q42 0 70 27.5t28 71.5zM879 120q0 -55 -37.5 -91t-91.5 -36q-53 0 -90.5 36t-37.5 91q0 56 37.5 92.5t90.5 36.5q54 0 91.5 -36.5t37.5 -92.5z M548 120q0 45 -28 72.5t-70 27.5q-41 0 -69 -27.5t-28 -72.5q0 -44 28 -71.5t69 -27.5q42 0 70 27.5t28 71.5zM579 120q0 -55 -37.5 -91t-91.5 -36q-53 0 -90.5 36t-37.5 91q0 56 37.5 92.5t90.5 36.5q54 0 91.5 -36.5t37.5 -92.5zM71 474q0 -45 28 -72.5t69 -27.5 q42 0 70 27.5t28 72.5t-28 72t-70 27t-69.5 -27t-27.5 -72zM40 474q0 55 37.5 91.5t90.5 36.5t90.5 -36.5t37.5 -91.5t-37.5 -91.5t-90.5 -36.5t-90.5 36.5t-37.5 91.5z" glyph-name="perthousand" unicode="‰" horiz-adv-x="919"/>
<glyph d="M210 373l-123 -158l123 -158h-37l-123 158l123 158h37z" glyph-name="guilsinglleft" unicode="‹" horiz-adv-x="260"/>
<glyph d="M173 215l-123 158h37l123 -158l-123 -158h-37z" glyph-name="guilsinglright" unicode="›" horiz-adv-x="260"/>
<glyph d="M-90 0l337 595h32l-337 -595h-32z" glyph-name="fraction" unicode="⁄" horiz-adv-x="189"/>
<glyph d="M232 436q0 61 -25 98.5t-64 37.5t-64 -37t-25 -99q0 -61 25 -98.5t64 -37.5t64 37.5t25 98.5zM262 436q0 -71 -33.5 -116.5t-85.5 -45.5q-53 0 -86 45t-33 117t33 117t86 45t86 -45t33 -117z" glyph-name="uni2070" unicode="⁰" horiz-adv-x="286"/>
<glyph d="M178 561l-133 -172h133v172zM207 596v-207h58v-24h-58v-87h-29v87h-163v25l161 206h31z" glyph-name="uni2074" unicode="⁴" horiz-adv-x="278"/>
<glyph d="M69 566l-7 -93q132 -17 132 -107q0 -40 -28 -66.5t-80 -26.5q-42 0 -75 22v28q37 -25 74 -25q39 0 59.5 18.5t20.5 48.5q0 72 -131 85l10 144h142v-28h-117z" glyph-name="uni2075" unicode="⁵" horiz-adv-x="215"/>
<glyph d="M49 377q0 -34 22.5 -56t54.5 -22q33 0 55.5 21.5t22.5 56.5q0 34 -22.5 55.5t-55.5 21.5t-55 -21.5t-22 -55.5zM124 595h32l-68 -115l-19 -31q22 30 63 30q42 0 71.5 -27.5t29.5 -73.5q0 -45 -30 -74.5t-77 -29.5q-48 0 -77 29.5t-29 74.5q0 43 34 98z" glyph-name="uni2076" unicode="⁶" horiz-adv-x="252"/>
<glyph d="M169 566h-166v28h197v-28l-136 -289h-31z" glyph-name="uni2077" unicode="⁷" horiz-adv-x="212"/>
<glyph d="M122 299q31 0 51.5 17.5t20.5 47.5t-20.5 48t-51.5 18t-52 -18t-21 -48t21 -47.5t52 -17.5zM122 457q25 0 42 16.5t17 42.5t-17 41.5t-42 15.5t-42.5 -15.5t-17.5 -41.5t17.5 -42.5t42.5 -16.5zM122 274q-45 0 -74 24t-29 65q0 32 20 54t50 27q-24 6 -39 25.5t-15 46.5 q0 38 25 60t62 22t62 -22t25 -60q0 -27 -15.5 -46.5t-38.5 -25.5q29 -6 49 -27.5t20 -53.5q0 -41 -29 -65t-73 -24z" glyph-name="uni2078" unicode="⁸" horiz-adv-x="244"/>
<glyph d="M203 495q0 35 -22.5 56.5t-55.5 21.5t-55 -21.5t-22 -56.5t22 -56.5t55 -21.5t55.5 21.5t22.5 56.5zM128 278h-32l68 114l19 31q-22 -30 -63 -30q-42 0 -72 28t-30 74q0 44 30 73.5t78 29.5q47 0 76.5 -29.5t29.5 -73.5q0 -42 -35 -100z" glyph-name="uni2079" unicode="⁹" horiz-adv-x="252"/>
<glyph d="M232 158q0 61 -25 98.5t-64 37.5t-64 -37t-25 -99t25 -99t64 -37t64 37.5t25 98.5zM262 158q0 -72 -33 -117t-86 -45t-86 45t-33 117t33 117t86 45t86 -45t33 -117z" glyph-name="uni2080" unicode="₀" horiz-adv-x="286"/>
<glyph d="M8 274v28l100 18v-320h-31v286z" glyph-name="uni2081" unicode="₁" horiz-adv-x="158"/>
<glyph d="M47 27h159v-27h-200v23q158 119 158 204q0 29 -16.5 47t-47.5 18q-45 0 -85 -40v30q35 38 90 38q41 0 65.5 -24.5t24.5 -65.5q0 -49 -42.5 -103.5t-105.5 -99.5z" glyph-name="uni2082" unicode="₂" horiz-adv-x="224"/>
<glyph d="M15 256v30q36 34 85 34q43 0 66 -22t23 -56q0 -31 -21 -53.5t-51 -27.5q33 -4 56 -25t23 -54q0 -39 -28.5 -62.5t-77.5 -23.5q-50 0 -79 24v28q34 -27 78 -27q36 0 56.5 17t20.5 46q0 59 -90 65v23q38 3 60 21t22 46q0 24 -16 39t-45 15q-43 0 -82 -37z" glyph-name="uni2083" unicode="₃" horiz-adv-x="216"/>
<glyph d="M178 283l-133 -172h133v172zM207 318v-207h58v-24h-58v-87h-29v87h-163v25l161 206h31z" glyph-name="uni2084" unicode="₄" horiz-adv-x="278"/>
<glyph d="M69 289l-7 -94q132 -15 132 -107q0 -40 -28 -66t-80 -26q-42 0 -75 22v28q38 -25 74 -25q39 0 59.5 18.5t20.5 48.5q0 72 -131 85l10 143h142v-27h-117z" glyph-name="uni2085" unicode="₅" horiz-adv-x="215"/>
<glyph d="M49 99q0 -34 22.5 -56t54.5 -22q33 0 55.5 21.5t22.5 56.5q0 34 -22.5 55.5t-55.5 21.5t-55 -21.5t-22 -55.5zM124 316h32l-68 -114l-19 -31q22 30 63 30q42 0 71.5 -28t29.5 -74q0 -44 -30 -73.5t-77 -29.5q-48 0 -77 29.5t-29 73.5t34 99z" glyph-name="uni2086" unicode="₆" horiz-adv-x="252"/>
<glyph d="M169 289h-166v27h197v-27l-136 -289h-31z" glyph-name="uni2087" unicode="₇" horiz-adv-x="212"/>
<glyph d="M122 21q31 0 51.5 17t20.5 47q0 31 -20.5 49t-51.5 18t-52 -18t-21 -49q0 -30 21 -47t52 -17zM122 179q25 0 42 16t17 42t-17 42t-42 16t-42.5 -16t-17.5 -42t17 -42t43 -16zM122 -4q-45 0 -74 24t-29 64q0 32 20 53.5t50 27.5q-24 6 -39 25.5t-15 47.5q0 38 25 60t62 22 t62 -22t25 -60q0 -28 -15.5 -47.5t-38.5 -25.5q29 -6 49 -27.5t20 -53.5q0 -40 -29 -64t-73 -24z" glyph-name="uni2088" unicode="₈" horiz-adv-x="244"/>
<glyph d="M203 217q0 35 -22.5 56.5t-55.5 21.5t-55 -21.5t-22 -56.5t22 -56.5t55 -21.5t55.5 21.5t22.5 56.5zM128 -1h-32l68 115l19 31q-22 -30 -63 -30q-42 0 -72 27.5t-30 73.5q0 45 30 74.5t78 29.5q47 0 76.5 -29.5t29.5 -74.5q0 -41 -35 -99z" glyph-name="uni2089" unicode="₉" horiz-adv-x="252"/>
<glyph d="M80 334h-60v26h63q15 111 79 176.5t161 65.5q73 0 131 -43v-37q-54 51 -131 51q-83 0 -138.5 -57.5t-69.5 -155.5h217l-6 -26h-214q-1 -12 -1 -37q0 -21 1 -31h198l-7 -26h-188q13 -100 69.5 -159.5t138.5 -59.5q80 0 132 52v-38q-58 -43 -132 -43q-99 0 -163 67t-78 181 h-62v26h60q-1 10 -1 31q0 25 1 37z" glyph-name="Euro" unicode="€" horiz-adv-x="488"/>
<glyph d="M297 452v-172q20 -4 47 -4q50 0 78.5 23t28.5 68q0 41 -27 64.5t-81 23.5q-29 0 -46 -3zM297 254v-138h-30v361q44 7 75 7q68 0 104 -31t36 -86q0 -57 -36.5 -87t-100.5 -30q-32 0 -48 4zM68 297q0 -122 79 -202.5t200 -80.5t200 80.5t79 202.5q0 123 -79 203.5 t-200 80.5t-200 -80.5t-79 -203.5zM45 297q0 130 86 217.5t216 87.5t215.5 -87.5t85.5 -217.5q0 -129 -85.5 -216.5t-215.5 -87.5t-216 87.5t-86 216.5z" glyph-name="uni2117" unicode="℗" horiz-adv-x="693"/>
<glyph d="M421 324h-27l-77 235l-39 -234h-27l45 269h34l78 -238l77 238h34l45 -269h-27l-39 234zM148 570v-244h-28v244h-90v24h208v-24h-90z" glyph-name="trademark" unicode="™" horiz-adv-x="613"/>
<glyph d="M339 0v35q63 42 108.5 114t45.5 168q0 114 -57 186t-153 72q-95 0 -152 -72t-57 -186q0 -96 45.5 -168t108.5 -114v-35h-185v29h150q-57 38 -105 113t-48 175q0 123 65.5 204t177.5 81q113 0 178.5 -81t65.5 -204q0 -100 -48 -175t-105 -113h150v-29h-185z" glyph-name="uni2126" unicode="Ω" horiz-adv-x="567"/>
<glyph d="M75 0l337 595h32l-337 -595h-32zM349 256v30q36 34 85 34q43 0 66 -22t23 -56q0 -31 -21 -53.5t-51 -27.5q33 -4 56 -25t23 -54q0 -39 -28.5 -62.5t-77.5 -23.5q-50 0 -79 24v28q34 -27 78 -27q36 0 56.5 17t20.5 46q0 59 -90 65v23q38 3 60 21t22 46q0 24 -16 39t-45 15 q-43 0 -82 -37zM40 552v28l100 18v-320h-31v286z" glyph-name="uni2153" unicode="⅓" horiz-adv-x="585"/>
<glyph d="M178 0l337 595h32l-337 -595h-32zM452 256v30q36 34 85 34q43 0 66 -22t23 -56q0 -31 -21 -53.5t-51 -27.5q33 -4 56 -25t23 -54q0 -39 -28.5 -62.5t-77.5 -23.5q-50 0 -79 24v28q34 -27 78 -27q36 0 56.5 17t20.5 46q0 59 -90 65v23q38 3 60 21t22 46q0 24 -16 39 t-45 15q-43 0 -82 -37zM91 305h159v-27h-200v23q158 119 158 204q0 30 -16.5 47.5t-47.5 17.5q-45 0 -85 -40v30q35 38 90 38q41 0 65.5 -24t24.5 -65q0 -50 -42 -104.5t-106 -99.5z" glyph-name="uni2154" unicode="⅔" horiz-adv-x="688"/>
<glyph d="M75 0l337 595h32l-337 -595h-32zM436 21q31 0 51.5 17t20.5 47q0 31 -20.5 49t-51.5 18t-52 -18t-21 -49q0 -30 21 -47t52 -17zM436 179q25 0 42 16t17 42t-17 42t-42 16t-42.5 -16t-17.5 -42t17 -42t43 -16zM436 -4q-45 0 -74 24t-29 64q0 32 20 53.5t50 27.5 q-24 6 -39 25.5t-15 47.5q0 38 25 60t62 22t62 -22t25 -60q0 -28 -15.5 -47.5t-38.5 -25.5q29 -6 49 -27.5t20 -53.5q0 -40 -29 -64t-73 -24zM40 552v28l100 18v-320h-31v286z" glyph-name="uni215B" unicode="⅛" horiz-adv-x="588"/>
<glyph d="M130 0l337 595h32l-337 -595h-32zM491 21q31 0 51.5 17t20.5 47q0 31 -20.5 49t-51.5 18t-52 -18t-21 -49q0 -30 21 -47t52 -17zM491 179q25 0 42 16t17 42t-17 42t-42 16t-42.5 -16t-17.5 -42t17 -42t43 -16zM491 -4q-45 0 -74 24t-29 64q0 32 20 53.5t50 27.5 q-24 6 -39 25.5t-15 47.5q0 38 25 60t62 22t62 -22t25 -60q0 -28 -15.5 -47.5t-38.5 -25.5q29 -6 49 -27.5t20 -53.5q0 -40 -29 -64t-73 -24zM54 534v30q36 34 85 34q43 0 66 -21.5t23 -56.5q0 -31 -20.5 -53t-51.5 -27q33 -4 56 -25t23 -54q0 -39 -28.5 -63t-77.5 -24 q-50 0 -79 24v28q34 -27 78 -27q36 0 56.5 17t20.5 46q0 59 -90 65v24q38 2 60 20.5t22 46.5q0 24 -16 38.5t-45 14.5q-43 0 -82 -37z" glyph-name="uni215C" unicode="⅜" horiz-adv-x="643"/>
<glyph d="M134 0l337 595h32l-337 -595h-32zM495 21q31 0 51.5 17t20.5 47q0 31 -20.5 49t-51.5 18t-52 -18t-21 -49q0 -30 21 -47t52 -17zM495 179q25 0 42 16t17 42t-17 42t-42 16t-42.5 -16t-17.5 -42t17 -42t43 -16zM495 -4q-45 0 -74 24t-29 64q0 32 20 53.5t50 27.5 q-24 6 -39 25.5t-15 47.5q0 38 25 60t62 22t62 -22t25 -60q0 -28 -15.5 -47.5t-38.5 -25.5q29 -6 49 -27.5t20 -53.5q0 -40 -29 -64t-73 -24zM108 566l-7 -93q132 -17 132 -107q0 -40 -28 -66.5t-80 -26.5q-42 0 -75 22v28q37 -25 74 -25q39 0 59.5 18.5t20.5 48.5 q0 72 -131 85l10 144h142v-28h-117z" glyph-name="uni215D" unicode="⅝" horiz-adv-x="647"/>
<glyph d="M75 0l337 595h32l-337 -595h-32zM436 21q31 0 51.5 17t20.5 47q0 31 -20.5 49t-51.5 18t-52 -18t-21 -49q0 -30 21 -47t52 -17zM436 179q25 0 42 16t17 42t-17 42t-42 16t-42.5 -16t-17.5 -42t17 -42t43 -16zM436 -4q-45 0 -74 24t-29 64q0 32 20 53.5t50 27.5 q-24 6 -39 25.5t-15 47.5q0 38 25 60t62 22t62 -22t25 -60q0 -28 -15.5 -47.5t-38.5 -25.5q29 -6 49 -27.5t20 -53.5q0 -40 -29 -64t-73 -24zM201 566h-166v28h197v-28l-136 -289h-31z" glyph-name="uni215E" unicode="⅞" horiz-adv-x="588"/>
<glyph d="M436 217q0 87 -49.5 142.5t-128.5 55.5q-78 0 -128 -55t-50 -143q0 -87 50 -141.5t128 -54.5t128 54.5t50 141.5zM159 680h44q266 -205 266 -458q0 -102 -59 -166t-152 -64q-92 0 -152 63t-60 162q0 100 59.5 163.5t152.5 63.5q117 0 167 -105q-22 82 -89.5 170.5 t-176.5 170.5z" glyph-name="partialdiff" unicode="∂" horiz-adv-x="515"/>
<glyph d="M59 29h444l-222 540zM550 0h-537l246 597h43z" glyph-name="Delta" unicode="∆" horiz-adv-x="563"/>
<glyph d="M484 -180h-32v743h-339v-743h-32v774h403v-774z" glyph-name="product" unicode="∏" horiz-adv-x="565"/>
<glyph d="M247 208l-217 358v28h351v-28h-316l220 -358l-220 -361h316v-27h-351v27z" glyph-name="summation" unicode="∑" horiz-adv-x="411"/>
<glyph d="M40 278v29h355v-29h-355z" glyph-name="minus" unicode="−" horiz-adv-x="435"/>
<glyph d="M426 595h33l-185 -595h-38l-118 343h-82v32h106l112 -338z" glyph-name="radical" unicode="√" horiz-adv-x="484"/>
<glyph d="M395 340l-48 -53l48 -54q43 -49 95 -49q40 0 67.5 28t27.5 75q0 46 -27.5 74t-67.5 28q-51 0 -95 -49zM309 287l-48 53q-44 49 -94 49q-40 0 -67.5 -28t-27.5 -74q0 -47 27.5 -75t67.5 -28q50 0 94 49zM328 264l-44 -50q-54 -59 -118 -59q-53 0 -89.5 36t-36.5 96 t36.5 95.5t89.5 35.5q64 0 118 -59l44 -50l45 50q54 59 118 59q53 0 89.5 -35.5t36.5 -95.5t-36.5 -96t-89.5 -36q-66 0 -118 59z" glyph-name="infinity" unicode="∞" horiz-adv-x="657"/>
<glyph d="M105 -81v581q0 50 23.5 76t67.5 26q40 0 67 -25v-31q-29 27 -67 27q-58 0 -58 -75v-581q0 -50 -23.5 -76t-67.5 -26q-40 0 -67 25v31q29 -27 67 -27q58 0 58 75z" glyph-name="integral" unicode="∫" horiz-adv-x="283"/>
<glyph d="M42 201v36q47 48 95 48q31 0 83 -25.5t80 -25.5q49 0 98 52v-36q-47 -48 -98 -48q-31 0 -82.5 25.5t-80.5 25.5q-44 0 -95 -52zM42 299v36q47 48 95 48q31 0 83 -25.5t80 -25.5q49 0 98 52v-36q-47 -48 -98 -48q-31 0 -82.5 25.5t-80.5 25.5q-44 0 -95 -52z" glyph-name="approxequal" unicode="≈" horiz-adv-x="440"/>
<glyph d="M143 220h-101v28h124l74 91h-198v28h220l71 87h35l-71 -87h101v-28h-123l-74 -91h197v-28h-220l-71 -88h-35z" glyph-name="notequal" unicode="≠" horiz-adv-x="440"/>
<glyph d="M24 126v29h259v-29h-259zM24 319v4l259 122v-33l-199 -91l199 -91v-33z" glyph-name="lessequal" unicode="≤" horiz-adv-x="319"/>
<glyph d="M295 155v-29h-259v29h259zM295 323v-4l-259 -122v33l199 91l-199 91v33z" glyph-name="greaterequal" unicode="≥" horiz-adv-x="319"/>
<glyph d="M70 261q0 12 8 20t20 8t20 -8t8 -20t-8 -20t-20 -8t-20 8t-8 20z" glyph-name="dotmath" unicode="⋅" horiz-adv-x="196"/>
<glyph d="M380 297l-155 272l-155 -272l155 -272zM36 297l171 297h36l171 -297l-171 -297h-36z" glyph-name="lozenge" unicode="◊" horiz-adv-x="450"/>
<glyph glyph-name="space_uni0326" d="M272 -46h34q0 -81 -69 -126h-26q34 28 47.5 56t13.5 70z" horiz-adv-x="500"/>
<glyph glyph-name="zero.op" d="M79 225q0 -91 56 -147.5t141 -56.5t141 56.5t56 147.5t-56 147.5t-141 56.5t-141 -56.5t-56 -147.5zM45 225q0 102 66 167.5t165 65.5t165 -65.5t66 -167.5t-66 -167.5t-165 -65.5t-165 65.5t-66 167.5z" horiz-adv-x="552"/>
<glyph glyph-name="one.op" d="M19 399v28l162 30v-457h-33v421z" horiz-adv-x="278"/>
<glyph glyph-name="two.op" d="M76 30h283v-30h-331v27q140 89 206.5 158t66.5 137q0 50 -30 78.5t-80 28.5q-84 0 -150 -91v41q24 36 64 57.5t86 21.5q66 0 105 -36.5t39 -99.5q0 -137 -259 -292z" horiz-adv-x="381"/>
<glyph glyph-name="three.op" d="M27 345v37q24 33 64.5 54.5t90.5 21.5q69 0 110 -39t41 -100q0 -59 -41.5 -101t-106.5 -58q67 -7 115 -47.5t48 -104.5q0 -73 -49.5 -116.5t-132.5 -43.5q-42 0 -83 15.5t-63 37.5v35q67 -59 146 -59q69 0 108.5 35.5t39.5 95.5q0 113 -179 138v22q84 22 124 57.5 t40 93.5q0 49 -33 79.5t-84 30.5q-90 0 -155 -84z" horiz-adv-x="385"/>
<glyph glyph-name="four.op" d="M322 419l-271 -359h271v359zM354 451v-391h103v-27h-103v-176h-32v176h-311v23l301 395h42z" horiz-adv-x="467"/>
<glyph glyph-name="five.op" d="M113 420l-14 -199q113 -13 182 -61.5t69 -138.5q0 -76 -50 -124.5t-141 -48.5q-85 0 -137 46v35q63 -52 137 -52q73 0 115 39t42 105q0 81 -64.5 120.5t-184.5 53.5l18 255h250v-30h-222z" horiz-adv-x="366"/>
<glyph glyph-name="six.op" d="M82 181q0 -72 45.5 -116t114.5 -44t114.5 44t45.5 116q0 71 -45.5 114.5t-114.5 43.5q-68 0 -114 -43.5t-46 -114.5zM261 594h37l-154 -232l-42 -65q24 31 61.5 51t78.5 20q84 0 138.5 -50.5t54.5 -136.5q0 -78 -51.5 -133.5t-141.5 -55.5q-88 0 -140 55.5t-52 133.5 q0 91 62 185z" horiz-adv-x="480"/>
<glyph glyph-name="seven.op" d="M330 420h-316v30h351v-28l-269 -566h-35z" horiz-adv-x="393"/>
<glyph glyph-name="eight.op" d="M237 20q68 0 113 36.5t45 103.5q0 68 -45.5 104t-112.5 36t-112.5 -36t-45.5 -104q0 -67 45 -103.5t113 -36.5zM237 328q53 0 89.5 33t36.5 89q0 57 -36.5 90.5t-89.5 33.5t-89.5 -33.5t-36.5 -90.5q0 -56 36.5 -89t89.5 -33zM237 -8q-84 0 -138 44.5t-54 123.5 q0 62 39 104t95 52q-43 13 -72 46.5t-29 87.5q0 69 45.5 110.5t113.5 41.5t113.5 -41.5t45.5 -110.5q0 -54 -29 -87.5t-72 -46.5q56 -10 95 -52t39 -104q0 -79 -54 -123.5t-138 -44.5z" horiz-adv-x="474"/>
<glyph glyph-name="nine.op" d="M398 269q0 72 -45.5 116t-114.5 44t-114.5 -44t-45.5 -116q0 -71 45.5 -114.5t114.5 -43.5q68 0 114 43.5t46 114.5zM219 -144h-37l154 232l42 65q-24 -31 -61.5 -51t-78.5 -20q-84 0 -138.5 50.5t-54.5 136.5q0 78 51.5 133.5t141.5 55.5q88 0 140 -55.5t52 -133.5 q0 -91 -62 -185z" horiz-adv-x="480"/>
<glyph glyph-name="commaturn" d="M240 513h-33q0 90 75 139h26q-68 -57 -68 -139z" horiz-adv-x="500"/>
<glyph glyph-name="registered.cap" d="M283 452v-166h50q45 0 72.5 21.5t27.5 63.5q0 40 -26.5 62.5t-78.5 22.5q-21 0 -45 -4zM283 260v-142h-30v359q32 7 74 7q66 0 102 -29t36 -84q0 -44 -27 -71.5t-71 -33.5l130 -148h-36l-124 142h-54zM68 297q0 -122 79 -202.5t200 -80.5t200 80.5t79 202.5 q0 123 -79 203.5t-200 80.5t-200 -80.5t-79 -203.5zM45 297q0 130 86 217.5t216 87.5t215.5 -87.5t85.5 -217.5q0 -129 -85.5 -216.5t-215.5 -87.5t-216 87.5t-86 216.5z" horiz-adv-x="693"/>
<glyph glyph-name="plus.op" d="M203 218h-163v29h163v163h29v-163h163v-29h-163v-163h-29v163z" horiz-adv-x="435"/>
<glyph glyph-name="minus.op" d="M40 218v29h355v-29h-355z" horiz-adv-x="435"/>
<glyph glyph-name="multiply.op" d="M161 231l-121 122l21 20l120 -122l120 122l21 -20l-120 -122l120 -122l-21 -20l-120 121l-120 -121l-21 20z" horiz-adv-x="362"/>
<glyph glyph-name="divide.op" d="M188 383q0 12 8.5 20.5t20.5 8.5q13 0 21.5 -8.5t8.5 -20.5q0 -13 -8.5 -21.5t-21.5 -8.5q-12 0 -20.5 8.5t-8.5 21.5zM188 83q0 13 8.5 21.5t20.5 8.5q13 0 21.5 -8.5t8.5 -21.5q0 -12 -8.5 -20.5t-21.5 -8.5q-12 0 -20.5 8.5t-8.5 20.5zM40 218v29h355v-29h-355z" horiz-adv-x="435"/>
<glyph glyph-name="equal.op" d="M42 279v29h356v-29h-356zM42 159v29h356v-29h-356z" horiz-adv-x="440"/>
<glyph glyph-name="less.op" d="M25 229v4l259 159v-35l-208 -126l208 -126v-35z" horiz-adv-x="319"/>
<glyph glyph-name="greater.op" d="M294 233v-4l-259 -159v35l208 126l-208 126v35z" horiz-adv-x="319"/>
<glyph glyph-name="zero_slash.lt" d="M370 526l-200 -476q40 -29 90 -29q82 0 133 75t51 201q0 153 -74 229zM149 68l200 476q-40 29 -89 29q-82 0 -133 -75t-51 -201q0 -156 73 -229zM260 -8q-98 0 -157.5 84t-59.5 221t59.5 221t157.5 84t157.5 -84t59.5 -221t-59.5 -221t-157.5 -84z"/>
<glyph glyph-name="zero.lt" d="M76 297q0 -126 51 -201t133 -75t133 75t51 201t-51 201t-133 75t-133 -75t-51 -201zM43 297q0 137 59.5 221t157.5 84t157.5 -84t59.5 -221t-59.5 -221t-157.5 -84t-157.5 84t-59.5 221z"/>
<glyph glyph-name="one.lt" d="M109 530v30l214 42v-602h-33v565z"/>
<glyph glyph-name="two.lt" d="M119 29h317v-29h-365v24q71 60 119 104.5t98.5 100.5t75.5 108.5t25 100.5q0 65 -34 99.5t-94 34.5q-94 0 -164 -90v39q27 35 70 58t94 23q73 0 117 -41.5t44 -122.5q0 -167 -303 -409z"/>
<glyph glyph-name="three.lt" d="M99 489v37q24 33 64.5 54.5t90.5 21.5q69 0 110 -39t41 -100q0 -59 -41.5 -101t-106.5 -58q67 -7 115 -47.5t48 -104.5q0 -73 -49.5 -116.5t-132.5 -43.5q-42 0 -83 15.5t-63 37.5v35q67 -59 146 -59q69 0 108.5 35.5t39.5 95.5q0 113 -179 138v22q84 22 124 57.5 t40 93.5q0 49 -33 79.5t-84 30.5q-90 0 -155 -84z"/>
<glyph glyph-name="four.lt" d="M348 562l-271 -359h271v359zM380 594v-391h93v-27h-93v-176h-32v176h-311v23l301 395h42z"/>
<glyph glyph-name="five.lt" d="M182 564l-14 -199q113 -13 182 -61.5t69 -138.5q0 -76 -50 -124.5t-141 -48.5q-85 0 -137 46v35q63 -52 137 -52q73 0 115 39t42 105q0 81 -64.5 120.5t-184.5 53.5l18 255h250v-30h-222z"/>
<glyph glyph-name="six.lt" d="M99 181q0 -72 45.5 -116.5t114.5 -44.5t114.5 44.5t45.5 116.5q0 71 -45.5 114.5t-114.5 43.5q-68 0 -114 -43.5t-46 -114.5zM278 594h37l-154 -232l-42 -65q24 31 61.5 51t78.5 20q84 0 138.5 -50.5t54.5 -136.5q0 -78 -51.5 -133.5t-141.5 -55.5q-88 0 -140 55.5 t-52 133.5q0 91 62 185z"/>
<glyph glyph-name="seven.lt" d="M410 564h-346v30h381v-28l-269 -566h-35z"/>
<glyph glyph-name="eight.lt" d="M260 20q68 0 113 36.5t45 103.5q0 68 -45.5 104t-112.5 36t-112.5 -36t-45.5 -104q0 -67 45 -103.5t113 -36.5zM260 328q53 0 89.5 33t36.5 89q0 57 -36.5 90.5t-89.5 33.5t-89.5 -33.5t-36.5 -90.5q0 -56 36.5 -89t89.5 -33zM260 -8q-84 0 -138 44.5t-54 123.5 q0 62 39 104t95 52q-43 13 -72 46.5t-29 87.5q0 69 45.5 110.5t113.5 41.5t113.5 -41.5t45.5 -110.5q0 -54 -29 -87.5t-72 -46.5q56 -10 95 -52t39 -104q0 -79 -54 -123.5t-138 -44.5z"/>
<glyph glyph-name="nine.lt" d="M420 413q0 72 -45.5 116.5t-114.5 44.5t-114.5 -44.5t-45.5 -116.5q0 -71 45.5 -114.5t114.5 -43.5q68 0 114 43.5t46 114.5zM241 0h-37l154 232l42 65q-24 -31 -61.5 -51t-78.5 -20q-84 0 -138.5 50.5t-54.5 136.5q0 78 51.5 133.5t141.5 55.5q88 0 140 -55.5t52 -133.5 q0 -91 -62 -185z"/>
<glyph glyph-name="zero_slash.ot" d="M150 56l195 353q-38 20 -85 20q-81 0 -134 -56.5t-53 -147.5q0 -112 77 -169zM368 395l-195 -353q39 -21 87 -21q81 0 134 56.5t53 147.5q0 112 -79 170zM39 225q0 102 63 167.5t158 65.5t158 -65.5t63 -167.5t-63 -167.5t-158 -65.5t-158 65.5t-63 167.5z"/>
<glyph glyph-name="zero.ot" d="M73 225q0 -91 53 -147.5t134 -56.5t134 56.5t53 147.5t-53 147.5t-134 56.5t-134 -56.5t-53 -147.5zM39 225q0 102 63 167.5t158 65.5t158 -65.5t63 -167.5t-63 -167.5t-158 -65.5t-158 65.5t-63 167.5z"/>
<glyph glyph-name="one.ot" d="M120 391v28l201 38v-457h-33v421z"/>
<glyph glyph-name="two.ot" d="M142 30h283v-30h-331v27q140 89 206.5 158t66.5 137q0 50 -30 78.5t-80 28.5q-85 0 -150 -90v39q24 36 64 58t86 22q66 0 105 -36.5t39 -99.5q0 -137 -259 -292z"/>
<glyph glyph-name="three.ot" d="M97 345v37q24 33 64.5 54.5t90.5 21.5q69 0 110 -39t41 -100q0 -59 -41.5 -101t-106.5 -58q67 -7 115 -47.5t48 -104.5q0 -73 -49.5 -116.5t-132.5 -43.5q-42 0 -83 15.5t-63 37.5v35q67 -59 146 -59q69 0 108.5 35.5t39.5 95.5q0 113 -179 138v22q84 22 124 57.5 t40 93.5q0 49 -33 79.5t-84 30.5q-90 0 -155 -84z"/>
<glyph glyph-name="four.ot" d="M357 419l-271 -359h271v359zM389 451v-391h93v-27h-93v-176h-32v176h-311v23l301 395h42z"/>
<glyph glyph-name="five.ot" d="M182 420l-14 -199q113 -13 182 -61.5t69 -138.5q0 -76 -50 -124.5t-141 -48.5q-85 0 -137 46v35q63 -52 137 -52q73 0 115 39t42 105q0 81 -64.5 120.5t-184.5 53.5l18 255h250v-30h-222z"/>
<glyph glyph-name="six.ot" d="M99 181q0 -72 45.5 -116.5t114.5 -44.5t114.5 44.5t45.5 116.5q0 71 -45.5 114.5t-114.5 43.5q-68 0 -114 -43.5t-46 -114.5zM278 594h37l-154 -232l-42 -65q24 31 61.5 51t78.5 20q84 0 138.5 -50.5t54.5 -136.5q0 -78 -51.5 -133.5t-141.5 -55.5q-88 0 -140 55.5 t-52 133.5q0 91 62 185z"/>
<glyph glyph-name="seven.ot" d="M404 420h-336v30h371v-28l-269 -566h-35z"/>
<glyph glyph-name="eight.ot" d="M260 20q68 0 113 36.5t45 103.5q0 68 -45.5 104t-112.5 36t-112.5 -36t-45.5 -104q0 -67 45 -103.5t113 -36.5zM260 328q53 0 89.5 33t36.5 89q0 57 -36.5 90.5t-89.5 33.5t-89.5 -33.5t-36.5 -90.5q0 -56 36.5 -89t89.5 -33zM260 -8q-84 0 -138 44.5t-54 123.5 q0 62 39 104t95 52q-43 13 -72 46.5t-29 87.5q0 69 45.5 110.5t113.5 41.5t113.5 -41.5t45.5 -110.5q0 -54 -29 -87.5t-72 -46.5q56 -10 95 -52t39 -104q0 -79 -54 -123.5t-138 -44.5z"/>
<glyph glyph-name="nine.ot" d="M420 269q0 72 -45.5 116.5t-114.5 44.5t-114.5 -44.5t-45.5 -116.5q0 -71 45.5 -114.5t114.5 -43.5q68 0 114 43.5t46 114.5zM241 -144h-37l154 232l42 65q-24 -31 -61.5 -51t-78.5 -20q-84 0 -138.5 50.5t-54.5 136.5q0 78 51.5 133.5t141.5 55.5q88 0 140 -55.5 t52 -133.5q0 -91 -62 -185z"/>
<glyph glyph-name="period.tab" d="M102 26q0 12 8 20t20 8t20 -8t8 -20t-8 -20t-20 -8t-20 8t-8 20z" horiz-adv-x="260"/>
<glyph glyph-name="comma.tab" d="M114 65h36q0 -56 -28.5 -112t-65.5 -81h-28q38 33 62 85t24 108z" horiz-adv-x="260"/>
<glyph glyph-name="colon.tab" d="M102 386q0 12 8 20t20 8t20 -8t8 -20t-8 -20t-20 -8t-20 8t-8 20zM102 26q0 12 8 20t20 8t20 -8t8 -20t-8 -20t-20 -8t-20 8t-8 20z" horiz-adv-x="260"/>
<glyph glyph-name="semicolon.tab" d="M102 386q0 12 8 20t20 8t20 -8t8 -20t-8 -20t-20 -8t-20 8t-8 20zM114 65h36q0 -56 -28.5 -112t-65.5 -81h-28q38 33 62 85t24 108z" horiz-adv-x="260"/>
<glyph glyph-name="zero_slash.op" d="M387 397l-198 -357q41 -19 87 -19q85 0 141 56.5t56 147.5q0 114 -86 172zM165 53l198 357q-41 19 -87 19q-85 0 -141 -56.5t-56 -147.5q0 -117 86 -172zM276 -8q-99 0 -165 65.5t-66 167.5t66 167.5t165 65.5t165 -65.5t66 -167.5t-66 -167.5t-165 -65.5z" horiz-adv-x="552"/>
<glyph glyph-name="space.tab" horiz-adv-x="260"/>
<glyph glyph-name="plusminus.op" d="M40 66v29h355v-29h-355zM203 276h-163v29h163v123h29v-123h163v-29h-163v-123h-29v123z" horiz-adv-x="435"/>
<glyph glyph-name="lessequal.op" d="M24 66v27h259v-27h-259zM24 259v4l259 122v-33l-199 -91l199 -91v-33z" horiz-adv-x="319"/>
<glyph glyph-name="greaterequal.op" d="M295 93v-27h-259v27h259zM295 263v-4l-259 -122v33l199 91l-199 91v33z" horiz-adv-x="319"/>
<glyph glyph-name="notequal.op" d="M143 160h-101v28h124l74 91h-198v28h220l71 87h35l-71 -87h101v-28h-123l-74 -91h197v-28h-220l-71 -88h-35z" horiz-adv-x="440"/>
<glyph glyph-name="approxequal.op" d="M42 144v36q47 48 95 48q31 0 83 -25.5t80 -25.5q49 0 98 52v-36q-47 -48 -98 -48q-31 0 -82.5 25.5t-80.5 25.5q-44 0 -95 -52zM42 242v36q47 48 95 48q31 0 83 -25.5t80 -25.5q49 0 98 52v-36q-47 -48 -98 -48q-31 0 -82.5 25.5t-80.5 25.5q-44 0 -95 -52z" horiz-adv-x="440"/>
<glyph glyph-name="plus.lt" d="M245 278h-163v29h163v163h29v-163h163v-29h-163v-163h-29v163z"/>
<glyph glyph-name="minus.lt" d="M82 278v29h355v-29h-355z"/>
<glyph glyph-name="multiply.lt" d="M240 291l-121 122l21 20l120 -122l120 122l21 -20l-120 -122l120 -122l-21 -20l-120 121l-120 -121l-21 20z"/>
<glyph glyph-name="divide.lt" d="M230 443q0 12 8.5 20.5t20.5 8.5q13 0 21.5 -8.5t8.5 -20.5q0 -13 -8.5 -21.5t-21.5 -8.5q-12 0 -20.5 8.5t-8.5 21.5zM230 143q0 13 8.5 21.5t20.5 8.5q13 0 21.5 -8.5t8.5 -21.5q0 -12 -8.5 -20.5t-21.5 -8.5q-12 0 -20.5 8.5t-8.5 20.5zM82 278v29h355v-29h-355z"/>
<glyph glyph-name="equal.lt" d="M82 339v29h356v-29h-356zM82 219v29h356v-29h-356z"/>
<glyph glyph-name="less.lt" d="M130 289v4l259 159v-35l-208 -126l208 -126v-35z"/>
<glyph glyph-name="greater.lt" d="M389 293v-4l-259 -159v35l208 126l-208 126v35z"/>
<glyph glyph-name="plusminus.lt" d="M82 116v29h355v-29h-355zM245 326h-163v29h163v123h29v-123h163v-29h-163v-123h-29v123z"/>
<glyph glyph-name="lessequal.lt" d="M130 126v29h259v-29h-259zM130 319v4l259 122v-33l-199 -91l199 -91v-33z"/>
<glyph glyph-name="greaterequal.lt" d="M389 155v-29h-259v29h259zM389 323v-4l-259 -122v33l199 91l-199 91v33z"/>
<glyph glyph-name="notequal.lt" d="M183 220h-101v28h124l74 91h-198v28h220l71 87h35l-71 -87h101v-28h-123l-74 -91h197v-28h-220l-71 -88h-35z"/>
<glyph glyph-name="approxequal.lt" d="M82 201v36q47 48 95 48q32 0 83.5 -25.5t79.5 -25.5q49 0 98 52v-36q-47 -48 -98 -48q-31 0 -82.5 25.5t-80.5 25.5q-44 0 -95 -52zM82 299v36q47 48 95 48q32 0 83.5 -25.5t79.5 -25.5q49 0 98 52v-36q-47 -48 -98 -48q-31 0 -82.5 25.5t-80.5 25.5q-44 0 -95 -52z"/>
<glyph glyph-name="plus.ot" d="M245 218h-163v29h163v163h29v-163h163v-29h-163v-163h-29v163z"/>
<glyph glyph-name="minus.ot" d="M82 218v29h355v-29h-355z"/>
<glyph glyph-name="multiply.ot" d="M240 231l-121 122l21 20l120 -122l120 122l21 -20l-120 -122l120 -122l-21 -20l-120 121l-120 -121l-21 20z"/>
<glyph glyph-name="divide.ot" d="M230 383q0 12 8.5 20.5t20.5 8.5q13 0 21.5 -8.5t8.5 -20.5q0 -13 -8.5 -21.5t-21.5 -8.5q-12 0 -20.5 8.5t-8.5 21.5zM230 83q0 13 8.5 21.5t20.5 8.5q13 0 21.5 -8.5t8.5 -21.5q0 -12 -8.5 -20.5t-21.5 -8.5q-12 0 -20.5 8.5t-8.5 20.5zM82 218v29h355v-29h-355z"/>
<glyph glyph-name="equal.ot" d="M82 279v29h356v-29h-356zM82 159v29h356v-29h-356z"/>
<glyph glyph-name="less.ot" d="M130 229v4l259 159v-35l-208 -126l208 -126v-35z"/>
<glyph glyph-name="greater.ot" d="M389 233v-4l-259 -159v35l208 126l-208 126v35z"/>
<glyph glyph-name="plusminus.ot" d="M82 66v29h355v-29h-355zM245 276h-163v29h163v123h29v-123h163v-29h-163v-123h-29v123z"/>
<glyph glyph-name="lessequal.ot" d="M130 66v27h259v-27h-259zM130 259v4l259 122v-33l-199 -91l199 -91v-33z"/>
<glyph glyph-name="greaterequal.ot" d="M389 93v-27h-259v27h259zM389 263v-4l-259 -122v33l199 91l-199 91v33z"/>
<glyph glyph-name="notequal.ot" d="M183 160h-101v28h124l74 91h-198v28h220l71 87h35l-71 -87h101v-28h-123l-74 -91h197v-28h-220l-71 -88h-35z"/>
<glyph glyph-name="approxequal.ot" d="M82 144v36q47 48 95 48q32 0 83.5 -25.5t79.5 -25.5q49 0 98 52v-36q-47 -48 -98 -48q-31 0 -82.5 25.5t-80.5 25.5q-44 0 -95 -52zM82 242v36q47 48 95 48q32 0 83.5 -25.5t79.5 -25.5q49 0 98 52v-36q-47 -48 -98 -48q-31 0 -82.5 25.5t-80.5 25.5q-44 0 -95 -52z"/>
<glyph glyph-name="doublebar" d="M180 -138v818h31v-818h-31zM96 -138v818h30v-818h-30z" horiz-adv-x="307"/>
<glyph glyph-name="zero.slash" d="M372 526l-200 -476q40 -29 90 -29q82 0 133 75t51 201q0 153 -74 229zM151 68l200 476q-40 29 -89 29q-82 0 -133 -75t-51 -201q0 -156 73 -229zM262 -8q-98 0 -157.5 84t-59.5 221t59.5 221t157.5 84t157.5 -84t59.5 -221t-59.5 -221t-157.5 -84z" horiz-adv-x="524"/>
<glyph glyph-name="invertedbreve" d="M175 514h-28q0 55 27.5 87t75.5 32t75.5 -32t27.5 -87h-28q0 43 -20 68.5t-55 25.5t-55 -25.5t-20 -68.5z" horiz-adv-x="500"/>
<glyph glyph-name="doublegrave" d="M256 513h-31l-85 152h31zM359 513h-31l-85 152h31z" horiz-adv-x="500"/>
<glyph glyph-name="caronSlovak" d="M254 680h30l-40 -148h-30z" horiz-adv-x="500"/>
<glyph glyph-name="dotbelow" d="M250 -142q-11 0 -19 7.5t-8 19.5t8 19.5t19 7.5t19 -7.5t8 -19.5t-8 -19.5t-19 -7.5z" horiz-adv-x="500"/>
<glyph glyph-name="altcedilla" d="M261 0h29q-1 -44 -20 -83.5t-49 -63.5h-35q70 61 75 147z" horiz-adv-x="500"/>
<glyph glyph-name="grave.cap" d="M302 647h-32l-73 131h32z" horiz-adv-x="500"/>
<glyph glyph-name="acute.cap" d="M229 647h-32l73 131h32z" horiz-adv-x="500"/>
<glyph glyph-name="circumflex.cap" d="M258 774l109 -133h-34l-83 101l-83 -101h-34l109 133h16z" horiz-adv-x="500"/>
<glyph glyph-name="tilde.cap" d="M342 736h26q0 -44 -16.5 -69.5t-46.5 -25.5q-29 0 -61 35t-49 35q-38 0 -38 -67h-26q0 44 16.5 69.5t46.5 25.5q22 0 41.5 -17.5t36.5 -35t32 -17.5q38 0 38 67z" horiz-adv-x="500"/>
<glyph glyph-name="macron.cap" d="M153 660v28h193v-28h-193z" horiz-adv-x="500"/>
<glyph glyph-name="breve.cap" d="M325 762h28q0 -55 -27.5 -86.5t-75.5 -31.5t-75.5 31.5t-27.5 86.5h28q0 -43 19.5 -67.5t55.5 -24.5t55.5 24.5t19.5 67.5z" horiz-adv-x="500"/>
<glyph glyph-name="invertedbreve.cap" d="M175 644h-28q0 55 27.5 86.5t75.5 31.5t75.5 -31.5t27.5 -86.5h-28q0 43 -19.5 68t-55.5 25t-55.5 -25t-19.5 -68z" horiz-adv-x="500"/>
<glyph glyph-name="dotaccent.cap" d="M250 655q-11 0 -19 7.5t-8 19.5t8 19.5t19 7.5t19 -7.5t8 -19.5t-8 -19.5t-19 -7.5z" horiz-adv-x="500"/>
<glyph glyph-name="dieresis.cap" d="M324 655q-11 0 -19 7.5t-8 19.5t8 19.5t19 7.5t19 -7.5t8 -19.5t-8 -19.5t-19 -7.5zM176 655q-11 0 -19 7.5t-8 19.5t8 19.5t19 7.5t19 -7.5t8 -19.5t-8 -19.5t-19 -7.5z" horiz-adv-x="500"/>
<glyph glyph-name="ring.cap" d="M301 702q0 23 -13.5 37t-37.5 14t-37.5 -14t-13.5 -37q0 -22 14 -36.5t37 -14.5q24 0 37.5 14.5t13.5 36.5zM173 702q0 32 22.5 53.5t54.5 21.5t54.5 -21.5t22.5 -53.5t-22.5 -53.5t-54.5 -21.5t-54.5 21.5t-22.5 53.5z" horiz-adv-x="500"/>
<glyph glyph-name="hungarumlaut.cap" d="M274 647h-31l73 131h31zM171 647h-31l73 131h31z" horiz-adv-x="500"/>
<glyph glyph-name="doublegrave.cap" d="M244 647h-31l-73 131h31zM347 647h-31l-73 131h31z" horiz-adv-x="500"/>
<glyph glyph-name="caron.cap" d="M365 778l-106 -132h-18l-106 132h34l81 -104l81 104h34z" horiz-adv-x="500"/>
<glyph glyph-name="exclamdown.cap" d="M90 569q0 12 8 20t20 8t20 -8t8 -20t-8 -20t-20 -8t-20 8t-8 20zM135 438v-438h-34v438h34z" horiz-adv-x="236"/>
<glyph glyph-name="questiondown.cap" d="M244 568q0 -12 -8 -20t-20 -8t-20 8t-8 20t8 20t20 8t20 -8t8 -20zM351 100v-39q-22 -30 -63.5 -49.5t-88.5 -19.5q-80 0 -124 45.5t-44 115.5q0 35 11.5 65t27.5 49.5t41 36.5t45 26.5t45 18.5v87h34v-105q-84 -30 -127 -69.5t-43 -109.5q0 -56 34.5 -92.5t99.5 -36.5 q89 0 152 77z" horiz-adv-x="379"/>
<glyph glyph-name="guilsinglleft.cap" d="M210 462l-123 -158l123 -158h-37l-123 158l123 158h37z" horiz-adv-x="260"/>
<glyph glyph-name="guilsinglright.cap" d="M173 304l-123 158h37l123 -158l-123 -158h-37z" horiz-adv-x="260"/>
<glyph glyph-name="guillemotleft.cap" d="M328 462l-123 -158l123 -158h-37l-123 158l123 158h37zM210 462l-123 -158l123 -158h-37l-123 158l123 158h37z" horiz-adv-x="378"/>
<glyph glyph-name="guillemotright.cap" d="M291 304l-123 158h37l123 -158l-123 -158h-37zM173 304l-123 158h37l123 -158l-123 -158h-37z" horiz-adv-x="378"/>
<glyph glyph-name="slash.cap" d="M18 -100l312 780h31l-311 -780h-32z" horiz-adv-x="379"/>
<glyph glyph-name="backslash.cap" d="M49 680l312 -780h-32l-311 780h31z" horiz-adv-x="379"/>
<glyph glyph-name="bar.cap" d="M96 -100v780h30v-780h-30z" horiz-adv-x="222"/>
<glyph glyph-name="doublebar.cap" d="M180 -100v780h31v-780h-31zM96 -100v780h30v-780h-30z" horiz-adv-x="307"/>
<glyph glyph-name="brokenbar.cap" d="M96 -100v321h30v-321h-30zM96 359v321h30v-321h-30z" horiz-adv-x="221"/>
<glyph glyph-name="bullet.cap" d="M70 302q0 31 21.5 52t52.5 21t52 -21t21 -52t-21 -52.5t-52 -21.5t-52.5 21.5t-21.5 52.5z" horiz-adv-x="287"/>
<glyph glyph-name="periodcentered.cap" d="M70 301q0 12 8 20t20 8t20 -8t8 -20t-8 -20t-20 -8t-20 8t-8 20z" horiz-adv-x="196"/>
<glyph glyph-name="hyphen.cap" d="M64 287v29h227v-29h-227z" horiz-adv-x="355"/>
<glyph glyph-name="endash.cap" d="M64 288v28h444v-28h-444z" horiz-adv-x="572"/>
<glyph glyph-name="emdash.cap" d="M64 288v28h824v-28h-824z" horiz-adv-x="952"/>
<glyph glyph-name="parenleft.cap" d="M270 -100h-39q-183 165 -183 390t183 390h39q-90 -82 -140.5 -173t-50.5 -217t50.5 -217t140.5 -173z" horiz-adv-x="280"/>
<glyph glyph-name="parenright.cap" d="M10 680h39q183 -165 183 -390t-183 -390h-39q90 82 140.5 173t50.5 217t-50.5 217t-140.5 173z" horiz-adv-x="280"/>
<glyph glyph-name="bracketleft.cap" d="M101 654v-728h122v-26h-150v780h150v-26h-122z" horiz-adv-x="273"/>
<glyph glyph-name="bracketright.cap" d="M172 -74v728h-122v26h150v-780h-150v26h122z" horiz-adv-x="273"/>
<glyph glyph-name="braceleft.cap" d="M161 542v-139q0 -52 -24.5 -80.5t-55.5 -32.5q31 -4 55.5 -32.5t24.5 -80.5v-139q0 -112 100 -112h19v-26h-17q-131 0 -131 138v138q0 51 -24 76t-58 25h-32v26h32q34 0 58 25t24 76v138q0 138 131 138h17v-26h-19q-100 0 -100 -112z" horiz-adv-x="314"/>
<glyph glyph-name="braceright.cap" d="M153 38v139q0 52 24.5 80.5t55.5 32.5q-31 4 -55.5 32.5t-24.5 80.5v139q0 112 -100 112h-19v26h17q131 0 131 -138v-138q0 -51 24 -76t58 -25h32v-26h-32q-34 0 -58 -25t-24 -76v-138q0 -138 -131 -138h-17v26h19q100 0 100 112z" horiz-adv-x="314"/>
<glyph glyph-name="at.cap" d="M507 124v308q-36 14 -86 14q-77 0 -123.5 -42t-46.5 -124q0 -75 48 -120t128 -45q42 0 80 9zM539 452v-321q151 55 151 221q0 120 -77.5 192t-204.5 72q-152 0 -241 -94.5t-89 -233.5q0 -70 22 -127t57.5 -94.5t82.5 -63t95.5 -36.5t97.5 -11q109 0 206 38v-31 q-86 -37 -206 -37q-69 0 -134.5 20t-124 61t-94 113.5t-35.5 167.5q0 155 100 256t263 101q143 0 228.5 -81t85.5 -212q0 -124 -81.5 -195t-212.5 -71q-93 0 -151.5 52.5t-58.5 141.5q0 90 55 143t148 53q63 0 118 -24z" horiz-adv-x="767"/>
<glyph glyph-name="zero.inf" d="M232 -22q0 61 -25 98.5t-64 37.5t-64 -37t-25 -99t25 -99t64 -37t64 37.5t25 98.5zM262 -22q0 -72 -33 -117t-86 -45t-86 45t-33 117t33 117t86 45t86 -45t33 -117z" horiz-adv-x="286"/>
<glyph glyph-name="one.inf" d="M8 94v28l100 18v-320h-31v286z" horiz-adv-x="158"/>
<glyph glyph-name="two.inf" d="M47 -153h159v-27h-200v23q158 119 158 204q0 29 -16.5 47t-47.5 18q-45 0 -85 -40v30q35 38 90 38q41 0 65.5 -24.5t24.5 -65.5q0 -49 -42.5 -103.5t-105.5 -99.5z" horiz-adv-x="224"/>
<glyph glyph-name="three.inf" d="M15 76v30q36 34 85 34q43 0 66 -22t23 -56q0 -31 -21 -53.5t-51 -27.5q33 -4 56 -25t23 -54q0 -39 -28.5 -62.5t-77.5 -23.5q-50 0 -79 24v28q34 -27 78 -27q36 0 56.5 17t20.5 46q0 59 -90 65v23q38 3 60 21t22 46q0 24 -16 39t-45 15q-43 0 -82 -37z" horiz-adv-x="216"/>
<glyph glyph-name="four.inf" d="M178 103l-133 -172h133v172zM207 138v-207h58v-24h-58v-87h-29v87h-163v25l161 206h31z" horiz-adv-x="278"/>
<glyph glyph-name="five.inf" d="M69 109l-7 -94q132 -15 132 -107q0 -40 -28 -66t-80 -26q-42 0 -75 22v28q37 -25 74 -25q39 0 59.5 18.5t20.5 48.5q0 72 -131 85l10 143h142v-27h-117z" horiz-adv-x="215"/>
<glyph glyph-name="six.inf" d="M49 -81q0 -34 22.5 -56t54.5 -22q33 0 55.5 21.5t22.5 56.5q0 34 -22.5 55.5t-55.5 21.5t-55 -21.5t-22 -55.5zM124 136h32l-68 -114l-19 -31q22 30 63 30q42 0 71.5 -28t29.5 -74q0 -44 -30 -73.5t-77 -29.5q-48 0 -77 29.5t-29 73.5t34 99z" horiz-adv-x="252"/>
<glyph glyph-name="seven.inf" d="M169 109h-166v27h197v-27l-136 -289h-31z" horiz-adv-x="212"/>
<glyph glyph-name="eight.inf" d="M122 -159q31 0 51.5 17t20.5 47q0 31 -20.5 49t-51.5 18t-52 -18t-21 -49q0 -30 21 -47t52 -17zM122 -1q25 0 42 16t17 42t-17 42t-42 16t-42.5 -16t-17.5 -42t17 -42t43 -16zM122 -184q-45 0 -74 24t-29 64q0 32 20 53.5t50 27.5q-24 6 -39 25.5t-15 47.5q0 38 25 60 t62 22t62 -22t25 -60q0 -28 -15.5 -47.5t-38.5 -25.5q29 -6 49 -27.5t20 -53.5q0 -40 -29 -64t-73 -24z" horiz-adv-x="244"/>
<glyph glyph-name="nine.inf" d="M203 37q0 35 -22.5 56.5t-55.5 21.5t-55 -21.5t-22 -56.5t22 -56.5t55 -21.5t55.5 21.5t22.5 56.5zM128 -181h-32l68 115l19 31q-22 -30 -63 -30q-42 0 -72 27.5t-30 73.5q0 45 30 74.5t78 29.5q47 0 76.5 -29.5t29.5 -74.5q0 -41 -35 -99z" horiz-adv-x="252"/>
</font>
</defs>
</svg>
